<svg xmlns="http://www.w3.org/2000/svg" viewBox="0 0 588.92 612"><defs><style>.cls-1{fill:#fff;}.cls-2,.cls-5{fill:#f1f2f2;}.cls-11,.cls-2,.cls-3,.cls-5,.cls-6{stroke:#231f20;}.cls-10,.cls-11,.cls-12,.cls-2,.cls-3,.cls-5,.cls-6{stroke-miterlimit:10;}.cls-3,.cls-9{fill:#27aae1;}.cls-4{fill:#231f20;}.cls-10,.cls-12,.cls-5,.cls-6{stroke-width:2px;}.cls-10,.cls-11,.cls-12,.cls-6{fill:none;}.cls-7{fill:#ec008c;}.cls-8{fill:#8dc63f;}.cls-10{stroke:#ec008c;}.cls-12{stroke:#414042;}.cls-13{fill:#414042;}</style></defs><g id="Layer_2" data-name="Layer 2"><g id="Layer_1-2" data-name="Layer 1"><rect class="cls-1" width="588.92" height="612"/><rect class="cls-2" x="9.75" y="418.92" width="569.17" height="164.92" rx="39.58"/><rect class="cls-3" x="191.42" y="445.67" width="181.67" height="114.17" rx="32.92"/><path class="cls-1" d="M225.69,497.79a23.91,23.91,0,0,1,3.52-.27,7.35,7.35,0,0,1,5.18,1.6,5.91,5.91,0,0,1,1.81,4.6,6.73,6.73,0,0,1-1.85,5c-1.19,1.2-3.17,1.85-5.66,1.85a28,28,0,0,1-3-.15Zm1.65,11.32a10,10,0,0,0,1.68.1c3.53,0,5.45-2,5.45-5.44,0-3-1.69-4.93-5.19-4.93a9.14,9.14,0,0,0-1.94.17Z"/><path class="cls-1" d="M243.38,510.42l-.13-1.15h-.06a3.42,3.42,0,0,1-2.81,1.36,2.62,2.62,0,0,1-2.81-2.64c0-2.22,2-3.44,5.52-3.42v-.19a1.9,1.9,0,0,0-2.09-2.13,4.58,4.58,0,0,0-2.39.69l-.38-1.1a5.65,5.65,0,0,1,3-.82c2.81,0,3.5,1.92,3.5,3.76v3.44a12.27,12.27,0,0,0,.15,2.2Zm-.25-4.69c-1.82,0-3.89.29-3.89,2.07a1.48,1.48,0,0,0,1.57,1.6,2.3,2.3,0,0,0,2.23-1.54,2,2,0,0,0,.09-.53Z"/><path class="cls-1" d="M247.22,508.71a4.31,4.31,0,0,0,2.2.67c1.22,0,1.79-.61,1.79-1.37s-.48-1.23-1.71-1.69c-1.66-.59-2.43-1.5-2.43-2.6,0-1.48,1.19-2.7,3.17-2.7a4.62,4.62,0,0,1,2.26.57l-.42,1.22a3.56,3.56,0,0,0-1.88-.54c-1,0-1.54.57-1.54,1.26s.55,1.1,1.75,1.56c1.59.6,2.41,1.4,2.41,2.77,0,1.61-1.25,2.75-3.44,2.75a5.26,5.26,0,0,1-2.58-.62Z"/><path class="cls-1" d="M255,496.94h1.67v5.73h0a3.1,3.1,0,0,1,1.2-1.18,3.47,3.47,0,0,1,1.71-.47c1.23,0,3.21.76,3.21,3.93v5.47h-1.68v-5.28c0-1.48-.55-2.73-2.12-2.73a2.41,2.41,0,0,0-2.25,1.67,2.12,2.12,0,0,0-.11.8v5.54H255Z"/><path class="cls-1" d="M265.44,510.42c0-.62.07-1.55.07-2.37V496.94h1.66v5.77h0a3.42,3.42,0,0,1,3.13-1.69c2.28,0,3.89,1.9,3.87,4.69,0,3.29-2.07,4.92-4.12,4.92A3.25,3.25,0,0,1,267,508.9H267l-.08,1.52Zm1.73-3.68a3.92,3.92,0,0,0,.07.61,2.59,2.59,0,0,0,2.51,1.95c1.75,0,2.79-1.42,2.79-3.53,0-1.84-1-3.42-2.73-3.42a2.67,2.67,0,0,0-2.55,2,3.22,3.22,0,0,0-.09.69Z"/><path class="cls-1" d="M284.65,505.75a4.49,4.49,0,0,1-4.58,4.88,4.37,4.37,0,0,1-4.41-4.73c0-3.08,2-4.88,4.56-4.88S284.65,502.94,284.65,505.75Zm-7.3.1c0,2,1.16,3.53,2.79,3.53s2.8-1.5,2.8-3.57c0-1.56-.78-3.54-2.76-3.54S277.35,504.1,277.35,505.85Z"/><path class="cls-1" d="M291.85,510.42l-.14-1.15h0a3.43,3.43,0,0,1-2.81,1.36A2.62,2.62,0,0,1,286,508c0-2.22,2-3.44,5.53-3.42v-.19a1.9,1.9,0,0,0-2.09-2.13,4.55,4.55,0,0,0-2.39.69l-.38-1.1a5.65,5.65,0,0,1,3-.82c2.81,0,3.5,1.92,3.5,3.76v3.44a12.27,12.27,0,0,0,.15,2.2Zm-.25-4.69c-1.82,0-3.89.29-3.89,2.07a1.48,1.48,0,0,0,1.57,1.6,2.3,2.3,0,0,0,2.23-1.54,2,2,0,0,0,.09-.53Z"/><path class="cls-1" d="M295.91,504.1c0-1.08,0-2-.07-2.87h1.46l.06,1.8h.07a2.77,2.77,0,0,1,2.55-2,1.68,1.68,0,0,1,.47.06v1.57a3.1,3.1,0,0,0-.57,0,2.35,2.35,0,0,0-2.24,2.14,4.61,4.61,0,0,0-.07.78v4.9h-1.66Z"/><path class="cls-1" d="M309.88,496.94v11.11c0,.82,0,1.75.07,2.37h-1.5l-.07-1.59h0a3.4,3.4,0,0,1-3.14,1.8c-2.22,0-3.93-1.88-3.93-4.67,0-3.06,1.88-4.94,4.12-4.94a3.09,3.09,0,0,1,2.78,1.41h0v-5.49Zm-1.67,8a2.79,2.79,0,0,0-.08-.7,2.46,2.46,0,0,0-2.41-1.94c-1.73,0-2.76,1.52-2.76,3.55,0,1.86.91,3.4,2.72,3.4a2.51,2.51,0,0,0,2.45-2,2.79,2.79,0,0,0,.08-.72Z"/><path class="cls-1" d="M312.06,509.44a1.12,1.12,0,0,1,1.14-1.2,1.2,1.2,0,0,1,0,2.39A1.12,1.12,0,0,1,312.06,509.44Z"/><path class="cls-1" d="M319.26,510.42l-4.18-12.8h1.79l2,6.31c.56,1.73,1,3.28,1.37,4.78h0c.36-1.48.89-3.09,1.46-4.76l2.17-6.33h1.77l-4.58,12.8Z"/><path class="cls-1" d="M334.35,507.92c0,.95,0,1.78.07,2.5h-1.48l-.09-1.5h0a3.47,3.47,0,0,1-3,1.71c-1.44,0-3.17-.8-3.17-4v-5.38h1.67v5.09c0,1.75.53,2.93,2.05,2.93a2.41,2.41,0,0,0,2.2-1.52,2.35,2.35,0,0,0,.16-.86v-5.64h1.67Z"/><path class="cls-1" d="M338.05,506.13a3,3,0,0,0,3.16,3.19,6.12,6.12,0,0,0,2.54-.47L344,510a7.4,7.4,0,0,1-3.06.57,4.27,4.27,0,0,1-4.52-4.63c0-2.78,1.63-5,4.31-5,3,0,3.8,2.64,3.8,4.33a6,6,0,0,1-.06.78Zm4.91-1.2a2.38,2.38,0,0,0-2.32-2.71,2.77,2.77,0,0,0-2.57,2.71Z"/><path class="cls-4" d="M69.19,439.85h1.67v13.49H69.19Z"/><path class="cls-4" d="M82,448.67a4.49,4.49,0,0,1-4.58,4.88A4.37,4.37,0,0,1,73,448.82c0-3.08,2-4.88,4.56-4.88S82,445.86,82,448.67Zm-7.3.09c0,2,1.16,3.54,2.8,3.54s2.79-1.51,2.79-3.58c0-1.55-.78-3.53-2.76-3.53S74.7,447,74.7,448.76Z"/><path class="cls-4" d="M86.12,441.5v2.65h2.4v1.27h-2.4v5c0,1.14.32,1.78,1.26,1.78a3.54,3.54,0,0,0,1-.11l.08,1.25a3.94,3.94,0,0,1-1.48.23,2.35,2.35,0,0,1-1.81-.7,3.45,3.45,0,0,1-.64-2.4v-5H83.06v-1.27h1.43v-2.21Z"/><path class="cls-4" d="M92.41,441.5v2.65H94.8v1.27H92.41v5c0,1.14.32,1.78,1.25,1.78a3.62,3.62,0,0,0,1-.11l.08,1.25a3.94,3.94,0,0,1-1.48.23,2.35,2.35,0,0,1-1.81-.7,3.45,3.45,0,0,1-.64-2.4v-5H89.35v-1.27h1.43v-2.21Z"/><path class="cls-4" d="M104.89,448.67a4.49,4.49,0,0,1-4.58,4.88c-2.48,0-4.4-1.82-4.4-4.73,0-3.08,2-4.88,4.56-4.88S104.89,445.86,104.89,448.67Zm-7.29.09c0,2,1.16,3.54,2.79,3.54s2.79-1.51,2.79-3.58c0-1.55-.78-3.53-2.75-3.53S97.6,447,97.6,448.76Z"/><path class="cls-4" d="M106.15,452.35a1.13,1.13,0,1,1,1.12,1.2A1.12,1.12,0,0,1,106.15,452.35Z"/><path class="cls-4" d="M108.24,456a2.74,2.74,0,0,0,1.82-.7c.46-.53.63-1.26.63-3.46v-7.69h1.67v8.33c0,1.79-.28,2.95-1.1,3.79a4.25,4.25,0,0,1-2.85,1Zm4.31-14.44a1,1,0,0,1-1,1,1,1,0,0,1-1-1,1,1,0,0,1,1.06-1A1,1,0,0,1,112.55,441.56Z"/><path class="cls-4" d="M114.87,451.63a4.4,4.4,0,0,0,2.2.67c1.22,0,1.79-.61,1.79-1.37s-.48-1.24-1.71-1.69c-1.65-.59-2.43-1.5-2.43-2.61,0-1.48,1.19-2.69,3.17-2.69a4.52,4.52,0,0,1,2.26.57l-.42,1.21a3.54,3.54,0,0,0-1.88-.53c-1,0-1.54.57-1.54,1.25s.55,1.11,1.75,1.56c1.6.61,2.41,1.41,2.41,2.78,0,1.61-1.25,2.75-3.44,2.75a5.26,5.26,0,0,1-2.58-.63Z"/><rect class="cls-5" x="9.75" y="5.15" width="561.93" height="241.15" rx="29.3"/><line class="cls-6" x1="9.75" y1="34.45" x2="571.68" y2="34.45"/><circle class="cls-7" cx="494.51" cy="20.31" r="7.08"/><circle class="cls-8" cx="518.67" cy="20.31" r="7.08"/><circle class="cls-9" cx="542.82" cy="20.31" r="7.08"/><path class="cls-4" d="M67.25,45.39l5.57-2.87v.83L68.13,45.7v0l4.69,2.35v.82L67.25,46Z"/><path class="cls-4" d="M79.5,40.39v7c0,.51,0,1.1,0,1.49h-1l0-1h0a2.16,2.16,0,0,1-2,1.14c-1.4,0-2.48-1.19-2.48-2.95,0-1.93,1.19-3.12,2.6-3.12a1.93,1.93,0,0,1,1.75.89h0V40.39Zm-1,5.07a2.2,2.2,0,0,0,0-.44,1.55,1.55,0,0,0-1.52-1.22c-1.1,0-1.74,1-1.74,2.24s.57,2.15,1.71,2.15a1.59,1.59,0,0,0,1.55-1.26,2.24,2.24,0,0,0,0-.46Z"/><path class="cls-4" d="M82.43,41.47a.62.62,0,0,1-.67.65.63.63,0,0,1-.64-.65.65.65,0,0,1,.66-.66A.63.63,0,0,1,82.43,41.47ZM81.26,48.9V43.1h1v5.8Z"/><path class="cls-4" d="M84.47,43.1l1.14,3.26c.19.53.35,1,.47,1.49h0c.13-.48.3-1,.49-1.49l1.12-3.26h1.11l-2.28,5.8h-1l-2.2-5.8Z"/><path class="cls-4" d="M96.52,48.69a4,4,0,0,1-1.67.33,2.75,2.75,0,0,1-2.89-3A3,3,0,0,1,95.08,43a3.6,3.6,0,0,1,1.46.3l-.24.82a2.35,2.35,0,0,0-1.22-.28,2.19,2.19,0,0,0,0,4.37,3,3,0,0,0,1.3-.29Z"/><path class="cls-4" d="M97.76,40.39h1V48.9h-1Z"/><path class="cls-4" d="M103.8,48.9l-.08-.73h0a2.14,2.14,0,0,1-1.77.87,1.66,1.66,0,0,1-1.78-1.67c0-1.4,1.25-2.17,3.49-2.16v-.12a1.19,1.19,0,0,0-1.32-1.34,2.93,2.93,0,0,0-1.51.43l-.24-.7a3.63,3.63,0,0,1,1.91-.51c1.77,0,2.21,1.21,2.21,2.37v2.17a8.32,8.32,0,0,0,.09,1.39Zm-.15-3c-1.15,0-2.46.18-2.46,1.31a.93.93,0,0,0,1,1,1.45,1.45,0,0,0,1.41-1,1.35,1.35,0,0,0,.06-.34Z"/><path class="cls-4" d="M106.23,47.83a2.79,2.79,0,0,0,1.39.42c.77,0,1.13-.39,1.13-.87s-.3-.78-1.08-1.07c-1-.37-1.54-.94-1.54-1.64a1.8,1.8,0,0,1,2-1.7,2.9,2.9,0,0,1,1.42.36l-.26.77a2.22,2.22,0,0,0-1.19-.34c-.62,0-1,.36-1,.79s.35.7,1.1,1c1,.39,1.53.89,1.53,1.76,0,1-.79,1.73-2.17,1.73a3.27,3.27,0,0,1-1.63-.39Z"/><path class="cls-4" d="M111,47.83a2.79,2.79,0,0,0,1.39.42c.77,0,1.13-.39,1.13-.87s-.3-.78-1.08-1.07c-1-.37-1.53-.94-1.53-1.64a1.79,1.79,0,0,1,2-1.7,2.94,2.94,0,0,1,1.43.36l-.27.77a2.22,2.22,0,0,0-1.19-.34c-.62,0-1,.36-1,.79s.35.7,1.11,1c1,.39,1.52.89,1.52,1.76,0,1-.79,1.73-2.17,1.73a3.27,3.27,0,0,1-1.63-.39Z"/><path class="cls-4" d="M115.48,44.86v-.72h6.19v.72Zm0,2.35v-.72h6.19v.72Z"/><path class="cls-4" d="M123.81,40.69l-.21,2.88H123l-.19-2.88Zm1.79,0-.21,2.88h-.63l-.21-2.88Z"/><path class="cls-4" d="M127.07,45c0-.75,0-1.35,0-1.9h1l.05,1h0A2.3,2.3,0,0,1,130.11,43c1.4,0,2.46,1.19,2.46,3,0,2.09-1.28,3.12-2.64,3.12a2.05,2.05,0,0,1-1.79-.91h0v3.15h-1.05Zm1.05,1.54a2.74,2.74,0,0,0,0,.43,1.63,1.63,0,0,0,1.59,1.24c1.11,0,1.76-.91,1.76-2.24,0-1.17-.61-2.16-1.73-2.16a1.67,1.67,0,0,0-1.59,1.3,1.62,1.62,0,0,0-.07.44Z"/><path class="cls-4" d="M137.11,48.9l-.08-.73h0a2.14,2.14,0,0,1-1.77.87,1.66,1.66,0,0,1-1.78-1.67c0-1.4,1.25-2.17,3.49-2.16v-.12a1.19,1.19,0,0,0-1.31-1.34,3,3,0,0,0-1.52.43l-.24-.7a3.63,3.63,0,0,1,1.91-.51c1.78,0,2.21,1.21,2.21,2.37v2.17a8.32,8.32,0,0,0,.09,1.39Zm-.15-3c-1.15,0-2.46.18-2.46,1.31a.94.94,0,0,0,1,1,1.45,1.45,0,0,0,1.4-1A1.35,1.35,0,0,0,137,47Z"/><path class="cls-4" d="M144.69,43.1c0,.42-.05.89-.05,1.6v3.37a3.36,3.36,0,0,1-.83,2.65,3.11,3.11,0,0,1-2.11.69,3.76,3.76,0,0,1-1.93-.48l.26-.8a3.32,3.32,0,0,0,1.71.45c1.07,0,1.87-.56,1.87-2v-.65h0a2.07,2.07,0,0,1-1.84,1,2.6,2.6,0,0,1-2.48-2.83A2.79,2.79,0,0,1,141.88,43a1.92,1.92,0,0,1,1.81,1h0l0-.88Zm-1.1,2.29a1.44,1.44,0,0,0-.06-.48,1.51,1.51,0,0,0-1.47-1.11c-1,0-1.73.85-1.73,2.19,0,1.14.58,2.09,1.72,2.09A1.55,1.55,0,0,0,143.51,47a1.87,1.87,0,0,0,.08-.57Z"/><path class="cls-4" d="M147,46.19a1.86,1.86,0,0,0,2,2,3.8,3.8,0,0,0,1.61-.3l.18.76a4.88,4.88,0,0,1-1.93.35A2.69,2.69,0,0,1,146,46.1c0-1.75,1-3.13,2.73-3.13a2.46,2.46,0,0,1,2.39,2.73,4.49,4.49,0,0,1,0,.49Zm3.09-.75a1.5,1.5,0,0,0-1.46-1.72A1.76,1.76,0,0,0,147,45.44Z"/><path class="cls-4" d="M155.19,45.27v.78h-3v-.78Z"/><path class="cls-4" d="M156.42,40.39h1.06V44h0a2,2,0,0,1,.76-.74,2.16,2.16,0,0,1,1.08-.3c.78,0,2,.48,2,2.48V48.9h-1.06V45.57c0-.93-.35-1.73-1.34-1.73a1.51,1.51,0,0,0-1.42,1.06,1.26,1.26,0,0,0-.07.5v3.5h-1.06Z"/><path class="cls-4" d="M163.67,46.19a1.87,1.87,0,0,0,2,2,3.8,3.8,0,0,0,1.61-.3l.18.76a4.88,4.88,0,0,1-1.93.35,2.69,2.69,0,0,1-2.86-2.92c0-1.75,1-3.13,2.73-3.13a2.46,2.46,0,0,1,2.4,2.73,4,4,0,0,1,0,.49Zm3.1-.75a1.51,1.51,0,0,0-1.47-1.72,1.77,1.77,0,0,0-1.62,1.72Z"/><path class="cls-4" d="M172.31,48.9l-.08-.73h0a2.15,2.15,0,0,1-1.77.87,1.66,1.66,0,0,1-1.78-1.67c0-1.4,1.25-2.17,3.49-2.16v-.12a1.19,1.19,0,0,0-1.32-1.34,2.93,2.93,0,0,0-1.51.43l-.24-.7A3.61,3.61,0,0,1,171,43c1.77,0,2.2,1.21,2.2,2.37v2.17a8.24,8.24,0,0,0,.1,1.39Zm-.16-3c-1.15,0-2.45.18-2.45,1.31a.93.93,0,0,0,1,1,1.43,1.43,0,0,0,1.4-1,1,1,0,0,0,.06-.34Z"/><path class="cls-4" d="M179.89,40.39v7c0,.51,0,1.1.05,1.49H179l0-1h0a2.16,2.16,0,0,1-2,1.14c-1.4,0-2.48-1.19-2.48-2.95,0-1.93,1.19-3.12,2.6-3.12a1.93,1.93,0,0,1,1.75.89h0V40.39Zm-1,5.07a1.65,1.65,0,0,0-.05-.44,1.55,1.55,0,0,0-1.52-1.22c-1.09,0-1.74,1-1.74,2.24s.57,2.15,1.71,2.15a1.59,1.59,0,0,0,1.55-1.26,1.71,1.71,0,0,0,.05-.46Z"/><path class="cls-4" d="M182.24,46.19a1.86,1.86,0,0,0,2,2,3.75,3.75,0,0,0,1.6-.3l.18.76a4.84,4.84,0,0,1-1.93.35,2.69,2.69,0,0,1-2.85-2.92c0-1.75,1-3.13,2.72-3.13a2.46,2.46,0,0,1,2.4,2.73,2.63,2.63,0,0,1,0,.49Zm3.09-.75a1.51,1.51,0,0,0-1.46-1.72,1.75,1.75,0,0,0-1.62,1.72Z"/><path class="cls-4" d="M187.66,44.91c0-.68,0-1.27,0-1.81h.93l0,1.14h.05A1.74,1.74,0,0,1,190.23,43a1.39,1.39,0,0,1,.3,0v1a1.88,1.88,0,0,0-.36,0,1.48,1.48,0,0,0-1.42,1.36,3.37,3.37,0,0,0-.05.49V48.9h-1Z"/><path class="cls-4" d="M192.36,40.69l-.2,2.88h-.65l-.19-2.88Zm1.79,0-.2,2.88h-.64l-.2-2.88Z"/><path class="cls-4" d="M201.11,46.05l-5.57,2.85v-.82l4.73-2.35v0l-4.73-2.35v-.83l5.57,2.86Z"/><path class="cls-4" d="M77.43,59.79,83,56.92v.83L78.3,60.1v0L83,62.48v.82l-5.56-2.86Z"/><path class="cls-4" d="M84.66,54.79h1.06v3.62h0a2,2,0,0,1,.76-.74,2.16,2.16,0,0,1,1.08-.3c.78,0,2,.48,2,2.48V63.3H88.55V60c0-.93-.35-1.73-1.34-1.73a1.51,1.51,0,0,0-1.42,1.06,1.26,1.26,0,0,0-.07.5v3.5H84.66Z"/><path class="cls-4" d="M93.28,56.49h0l-1.36.73-.2-.8,1.7-.91h.9V63.3h-1Z"/><path class="cls-4" d="M103,60.45,97.4,63.3v-.82l4.72-2.35v0L97.4,57.75v-.83L103,59.78Z"/><path class="cls-4" d="M104.67,55.22h1v7.21h3.46v.87h-4.5Z"/><path class="cls-4" d="M115.38,60.35a2.84,2.84,0,0,1-2.89,3.09,2.76,2.76,0,0,1-2.78-3,2.83,2.83,0,0,1,2.88-3.08A2.75,2.75,0,0,1,115.38,60.35Zm-4.6.06c0,1.28.73,2.24,1.76,2.24s1.76-.95,1.76-2.26c0-1-.49-2.23-1.74-2.23S110.78,59.31,110.78,60.41Z"/><path class="cls-4" d="M118,55.83V57.5h1.51v.8H118v3.13c0,.72.2,1.13.79,1.13a2.68,2.68,0,0,0,.61-.07l0,.79a2.73,2.73,0,0,1-.94.14,1.47,1.47,0,0,1-1.14-.44,2.15,2.15,0,0,1-.4-1.51V58.3h-.9v-.8h.9V56.11Z"/><path class="cls-4" d="M122,55.83V57.5h1.51v.8H122v3.13c0,.72.2,1.13.79,1.13a2.6,2.6,0,0,0,.61-.07l0,.79a2.69,2.69,0,0,1-.94.14,1.47,1.47,0,0,1-1.14-.44,2.2,2.2,0,0,1-.4-1.51V58.3H120v-.8h.9V56.11Z"/><path class="cls-4" d="M129.84,60.35A2.84,2.84,0,0,1,127,63.44a2.76,2.76,0,0,1-2.78-3,2.83,2.83,0,0,1,2.88-3.08A2.75,2.75,0,0,1,129.84,60.35Zm-4.61.06c0,1.28.74,2.24,1.77,2.24s1.76-.95,1.76-2.26c0-1-.49-2.23-1.74-2.23S125.23,59.31,125.23,60.41Z"/><path class="cls-4" d="M131.09,59.79l5.57-2.87v.83L132,60.1v0l4.69,2.35v.82l-5.57-2.86Z"/><path class="cls-4" d="M137.44,63.78l3.35-8.69h.81l-3.36,8.69Z"/><path class="cls-4" d="M142.44,54.79h1.06v3.62h0a1.93,1.93,0,0,1,.76-.74,2.16,2.16,0,0,1,1.08-.3c.78,0,2,.48,2,2.48V63.3h-1V60c0-.93-.35-1.73-1.34-1.73a1.51,1.51,0,0,0-1.42,1.06,1.26,1.26,0,0,0-.07.5v3.5h-1.06Z"/><path class="cls-4" d="M151.06,56.49h0l-1.35.73-.2-.8,1.7-.91h.9V63.3h-1Z"/><path class="cls-4" d="M160.74,60.45l-5.57,2.85v-.82l4.73-2.35v0l-4.73-2.35v-.83l5.57,2.86Z"/><path class="cls-4" d="M67.25,74.19l5.57-2.87v.83L68.13,74.5v0l4.69,2.35v.82l-5.57-2.86Z"/><path class="cls-4" d="M73.6,78.18,77,69.49h.81L74.4,78.18Z"/><path class="cls-4" d="M83.62,69.19v7c0,.51,0,1.1,0,1.49h-1l0-1h0a2.18,2.18,0,0,1-2,1.14c-1.41,0-2.49-1.19-2.49-3,0-1.93,1.19-3.12,2.61-3.12a2,2,0,0,1,1.75.89h0V69.19Zm-1.06,5.07a1.65,1.65,0,0,0,0-.44A1.54,1.54,0,0,0,81,72.6c-1.09,0-1.74,1-1.74,2.24S79.83,77,81,77a1.58,1.58,0,0,0,1.54-1.25,1.71,1.71,0,0,0,0-.46Z"/><path class="cls-4" d="M86.55,70.27a.66.66,0,0,1-1.31,0,.65.65,0,0,1,.66-.66A.63.63,0,0,1,86.55,70.27ZM85.37,77.7V71.9h1.06v5.8Z"/><path class="cls-4" d="M88.59,71.9l1.14,3.26c.19.53.35,1,.47,1.49h0c.13-.48.3-1,.49-1.49l1.13-3.26H93l-2.27,5.8h-1l-2.21-5.8Z"/><path class="cls-4" d="M99.43,74.85,93.87,77.7v-.82l4.72-2.35v0l-4.72-2.35v-.83l5.56,2.86Z"/><path class="cls-4" d="M67.25,103l5.57-2.87V101l-4.69,2.35v0l4.69,2.35v.82l-5.57-2.86Z"/><path class="cls-4" d="M74.49,102.6c0-.75,0-1.35,0-1.9h1l0,1h0a2.28,2.28,0,0,1,2.06-1.13c1.41,0,2.46,1.19,2.46,3,0,2.09-1.27,3.12-2.64,3.12a2,2,0,0,1-1.78-.91h0v3.15h-1Zm1,1.54a2.68,2.68,0,0,0,0,.43,1.62,1.62,0,0,0,1.58,1.24c1.12,0,1.77-.91,1.77-2.24,0-1.17-.62-2.16-1.73-2.16a1.69,1.69,0,0,0-1.6,1.3,2.13,2.13,0,0,0-.07.44Z"/><path class="cls-4" d="M86.8,103.65l-5.57,2.85v-.82L86,103.33v0L81.23,101v-.83L86.8,103Z"/><path class="cls-4" d="M88.5,98.42h1v7.21H93v.87H88.5Z"/><path class="cls-4" d="M94.55,103.79a1.87,1.87,0,0,0,2,2,3.8,3.8,0,0,0,1.61-.3l.18.76a4.84,4.84,0,0,1-1.93.36,2.7,2.7,0,0,1-2.86-2.93c0-1.75,1-3.13,2.73-3.13a2.46,2.46,0,0,1,2.4,2.73,4,4,0,0,1,0,.49Zm3.1-.75a1.51,1.51,0,0,0-1.47-1.72A1.77,1.77,0,0,0,94.56,103Z"/><path class="cls-4" d="M101.25,99v1.67h1.51v.8h-1.51v3.13c0,.72.2,1.13.79,1.13a2.21,2.21,0,0,0,.61-.07l0,.79a2.7,2.7,0,0,1-.94.15,1.46,1.46,0,0,1-1.14-.45,2.15,2.15,0,0,1-.4-1.51V101.5h-.9v-.8h.9V99.31Z"/><path class="cls-4" d="M111.35,104.92c0,.6,0,1.13.05,1.58h-.94l-.06-.94h0a2.21,2.21,0,0,1-1.92,1.08c-.91,0-2-.51-2-2.55V100.7h1.05v3.21c0,1.11.34,1.85,1.3,1.85a1.47,1.47,0,0,0,1.48-1.5V100.7h1.06Z"/><path class="cls-4" d="M113,105.43a2.79,2.79,0,0,0,1.39.42c.77,0,1.13-.39,1.13-.87s-.3-.78-1.08-1.07c-1.05-.37-1.54-.94-1.54-1.64a1.8,1.8,0,0,1,2-1.7,2.9,2.9,0,0,1,1.42.36l-.26.77a2.22,2.22,0,0,0-1.19-.34c-.62,0-1,.36-1,.79s.35.7,1.1,1c1,.39,1.53.89,1.53,1.76s-.79,1.74-2.17,1.74a3.27,3.27,0,0,1-1.63-.4Z"/><path class="cls-4" d="M120.25,105.43a2.86,2.86,0,0,0,1.4.42c.76,0,1.12-.39,1.12-.87s-.3-.78-1.08-1.07c-1-.37-1.53-.94-1.53-1.64a1.79,1.79,0,0,1,2-1.7,2.91,2.91,0,0,1,1.43.36l-.26.77a2.22,2.22,0,0,0-1.19-.34c-.63,0-1,.36-1,.79s.34.7,1.1,1c1,.39,1.52.89,1.52,1.76s-.79,1.74-2.17,1.74a3.33,3.33,0,0,1-1.63-.4Z"/><path class="cls-4" d="M125.74,103.79a1.86,1.86,0,0,0,2,2,3.83,3.83,0,0,0,1.61-.3l.18.76a4.88,4.88,0,0,1-1.93.36,2.7,2.7,0,0,1-2.86-2.93c0-1.75,1-3.13,2.72-3.13a2.46,2.46,0,0,1,2.4,2.73,4.49,4.49,0,0,1,0,.49Zm3.09-.75a1.5,1.5,0,0,0-1.46-1.72,1.75,1.75,0,0,0-1.62,1.72Z"/><path class="cls-4" d="M131.75,103.79a1.86,1.86,0,0,0,2,2,3.8,3.8,0,0,0,1.61-.3l.18.76a4.84,4.84,0,0,1-1.93.36,2.7,2.7,0,0,1-2.86-2.93c0-1.75,1-3.13,2.73-3.13a2.46,2.46,0,0,1,2.39,2.73,4.49,4.49,0,0,1,0,.49Zm3.09-.75a1.5,1.5,0,0,0-1.46-1.72,1.76,1.76,0,0,0-1.62,1.72Z"/><path class="cls-4" d="M140.89,99.07a.62.62,0,0,1-.67.65.63.63,0,0,1-.63-.65.64.64,0,0,1,.66-.66A.62.62,0,0,1,140.89,99.07Zm-1.17,7.43v-5.8h1.05v5.8Z"/><path class="cls-4" d="M142.63,106.5v-5h-.81v-.8h.81v-.28a2.7,2.7,0,0,1,.68-2,2,2,0,0,1,1.41-.54,2.32,2.32,0,0,1,.9.17l-.14.81a1.65,1.65,0,0,0-.67-.13c-.9,0-1.13.79-1.13,1.68v.31h1.4v.8h-1.4v5Z"/><path class="cls-4" d="M149,100.7l1.27,3.43c.13.38.28.84.37,1.19h0c.11-.35.23-.79.38-1.21l1.15-3.41h1.11l-1.58,4.14c-.76,2-1.27,3-2,3.63a2.87,2.87,0,0,1-1.3.69l-.26-.89a2.82,2.82,0,0,0,.92-.52,3.17,3.17,0,0,0,.89-1.17.85.85,0,0,0,.09-.25.94.94,0,0,0-.08-.28l-2.14-5.35Z"/><path class="cls-4" d="M159.36,103.55a2.84,2.84,0,0,1-2.89,3.09,2.76,2.76,0,0,1-2.78-3,2.83,2.83,0,0,1,2.87-3.08A2.75,2.75,0,0,1,159.36,103.55Zm-4.61.06c0,1.28.74,2.24,1.77,2.24s1.76-.95,1.76-2.26c0-1-.49-2.23-1.74-2.23S154.75,102.51,154.75,103.61Z"/><path class="cls-4" d="M165.55,104.92c0,.6,0,1.13,0,1.58h-.94l-.06-.94h0a2.21,2.21,0,0,1-1.92,1.08c-.91,0-2-.51-2-2.55V100.7h1.05v3.21c0,1.11.34,1.85,1.3,1.85a1.5,1.5,0,0,0,1.49-1.5V100.7h1.05Z"/><path class="cls-4" d="M173.06,106.5l-.08-.73h0a2.14,2.14,0,0,1-1.77.87,1.66,1.66,0,0,1-1.78-1.67c0-1.4,1.25-2.17,3.49-2.16v-.12a1.19,1.19,0,0,0-1.32-1.34,2.93,2.93,0,0,0-1.51.43l-.24-.7a3.63,3.63,0,0,1,1.91-.51c1.78,0,2.21,1.21,2.21,2.37v2.17a8.32,8.32,0,0,0,.09,1.39Zm-.15-3c-1.15,0-2.46.18-2.46,1.31a.94.94,0,0,0,1,1,1.45,1.45,0,0,0,1.41-1,1.35,1.35,0,0,0,.06-.34Z"/><path class="cls-4" d="M175.63,98h1.06v3.62h0a1.93,1.93,0,0,1,.76-.74,2.16,2.16,0,0,1,1.08-.3c.78,0,2,.48,2,2.48v3.45h-1.06v-3.33c0-.93-.35-1.73-1.34-1.73a1.51,1.51,0,0,0-1.42,1.06,1.26,1.26,0,0,0-.07.5v3.5h-1.06Z"/><path class="cls-4" d="M182.55,100.7l1.14,3.26a15.54,15.54,0,0,1,.46,1.49h0c.13-.48.3-1,.49-1.49l1.13-3.26h1.1l-2.28,5.8h-1l-2.21-5.8Z"/><path class="cls-4" d="M188.38,103.79a1.86,1.86,0,0,0,2,2,3.83,3.83,0,0,0,1.61-.3l.18.76a4.88,4.88,0,0,1-1.93.36,2.7,2.7,0,0,1-2.86-2.93c0-1.75,1-3.13,2.72-3.13a2.46,2.46,0,0,1,2.4,2.73,4.49,4.49,0,0,1,0,.49Zm3.09-.75a1.5,1.5,0,0,0-1.46-1.72,1.75,1.75,0,0,0-1.62,1.72Z"/><path class="cls-4" d="M196.77,100.7l.76,3c.17.65.33,1.25.44,1.85h0c.13-.59.33-1.21.52-1.84l.94-3h.89l.9,2.9c.22.7.39,1.31.52,1.9h0c.1-.59.26-1.2.45-1.89l.82-2.91h1.05l-1.87,5.8h-1l-.89-2.77c-.2-.64-.37-1.22-.52-1.9h0a15.86,15.86,0,0,1-.53,1.92l-.93,2.75h-1l-1.75-5.8Z"/><path class="cls-4" d="M210.31,103.55a2.84,2.84,0,0,1-2.89,3.09,2.76,2.76,0,0,1-2.78-3,2.83,2.83,0,0,1,2.88-3.08A2.75,2.75,0,0,1,210.31,103.55Zm-4.6.06c0,1.28.73,2.24,1.76,2.24s1.76-.95,1.76-2.26c0-1-.49-2.23-1.74-2.23S205.71,102.51,205.71,103.61Z"/><path class="cls-4" d="M211.65,102.27c0-.6,0-1.09-.05-1.57h.93l.06,1h0a2.14,2.14,0,0,1,1.92-1.09c.8,0,2.05.48,2.05,2.47v3.46h-1.06v-3.34c0-.94-.35-1.72-1.34-1.72a1.51,1.51,0,0,0-1.42,1.08,1.75,1.75,0,0,0-.07.49v3.49h-1Z"/><path class="cls-4" d="M222.12,99v1.67h1.51v.8h-1.51v3.13c0,.72.2,1.13.79,1.13a2.15,2.15,0,0,0,.61-.07l0,.79a2.63,2.63,0,0,1-.93.15,1.45,1.45,0,0,1-1.14-.45,2.15,2.15,0,0,1-.41-1.51V101.5h-.9v-.8h.9V99.31Z"/><path class="cls-4" d="M224.82,98h1.06v3.62h0a1.93,1.93,0,0,1,.76-.74,2.16,2.16,0,0,1,1.08-.3c.78,0,2,.48,2,2.48v3.45h-1v-3.33c0-.93-.35-1.73-1.35-1.73A1.51,1.51,0,0,0,226,102.5a1.26,1.26,0,0,0-.07.5v3.5h-1.06Z"/><path class="cls-4" d="M232.07,103.79a1.86,1.86,0,0,0,2,2,3.8,3.8,0,0,0,1.61-.3l.18.76a4.84,4.84,0,0,1-1.93.36,2.7,2.7,0,0,1-2.86-2.93c0-1.75,1-3.13,2.72-3.13a2.46,2.46,0,0,1,2.4,2.73,4.49,4.49,0,0,1,0,.49Zm3.09-.75a1.5,1.5,0,0,0-1.46-1.72,1.76,1.76,0,0,0-1.62,1.72Z"/><path class="cls-4" d="M240.07,98.42h1.05v7.21h3.45v.87h-4.5Z"/><path class="cls-4" d="M250.79,103.55a2.84,2.84,0,0,1-2.89,3.09,2.76,2.76,0,0,1-2.79-3,2.83,2.83,0,0,1,2.88-3.08A2.75,2.75,0,0,1,250.79,103.55Zm-4.61.06c0,1.28.73,2.24,1.76,2.24s1.77-.95,1.77-2.26c0-1-.49-2.23-1.74-2.23S246.18,102.51,246.18,103.61Z"/><path class="cls-4" d="M253.39,99v1.67h1.51v.8h-1.51v3.13c0,.72.21,1.13.79,1.13a2.29,2.29,0,0,0,.62-.07l0,.79a2.59,2.59,0,0,1-.93.15,1.46,1.46,0,0,1-1.14-.45,2.15,2.15,0,0,1-.41-1.51V101.5h-.9v-.8h.9V99.31Z"/><path class="cls-4" d="M257.36,99v1.67h1.52v.8h-1.52v3.13c0,.72.21,1.13.8,1.13a2.21,2.21,0,0,0,.61-.07l.05.79a2.7,2.7,0,0,1-.94.15,1.46,1.46,0,0,1-1.14-.45,2.15,2.15,0,0,1-.41-1.51V101.5h-.9v-.8h.9V99.31Z"/><path class="cls-4" d="M265.25,103.55a2.84,2.84,0,0,1-2.89,3.09,2.76,2.76,0,0,1-2.79-3,2.83,2.83,0,0,1,2.88-3.08A2.75,2.75,0,0,1,265.25,103.55Zm-4.61.06c0,1.28.73,2.24,1.76,2.24s1.77-.95,1.77-2.26c0-1-.5-2.23-1.74-2.23S260.64,102.51,260.64,103.61Z"/><path class="cls-4" d="M266.38,105.89a.7.7,0,0,1,.7-.74.69.69,0,0,1,.71.74.71.71,0,1,1-1.41,0Zm.3-1.71-.17-5.76h1.15l-.17,5.76Z"/><path class="cls-4" d="M269.14,105.89a.7.7,0,0,1,.7-.74.69.69,0,0,1,.71.74.71.71,0,1,1-1.41,0Zm.3-1.71-.17-5.76h1.15l-.17,5.76Z"/><path class="cls-4" d="M272,103l5.56-2.87V101l-4.69,2.35v0l4.69,2.35v.82L272,103.64Z"/><path class="cls-4" d="M278.36,107l3.35-8.69h.82L279.17,107Z"/><path class="cls-4" d="M283.37,102.6c0-.75,0-1.35-.05-1.9h.95l0,1h0a2.27,2.27,0,0,1,2.06-1.13c1.41,0,2.46,1.19,2.46,3,0,2.09-1.27,3.12-2.64,3.12a2,2,0,0,1-1.78-.91h0v3.15h-1Zm1,1.54a2.68,2.68,0,0,0,0,.43,1.62,1.62,0,0,0,1.58,1.24c1.12,0,1.77-.91,1.77-2.24,0-1.17-.62-2.16-1.73-2.16a1.69,1.69,0,0,0-1.6,1.3,2.13,2.13,0,0,0-.07.44Z"/><path class="cls-4" d="M295.68,103.65l-5.57,2.85v-.82l4.73-2.35v0L290.11,101v-.83l5.57,2.86Z"/><path class="cls-4" d="M67.25,131.79l5.57-2.87v.83l-4.69,2.35v0l4.69,2.35v.82l-5.57-2.86Z"/><path class="cls-4" d="M74.49,131.4c0-.75,0-1.35,0-1.9h1l0,1h0a2.28,2.28,0,0,1,2.06-1.13c1.41,0,2.46,1.19,2.46,2.95,0,2.09-1.27,3.12-2.64,3.12a2,2,0,0,1-1.78-.92h0v3.16h-1Zm1,1.54a2.68,2.68,0,0,0,0,.43,1.62,1.62,0,0,0,1.58,1.24c1.12,0,1.77-.91,1.77-2.24,0-1.17-.62-2.16-1.73-2.16a1.69,1.69,0,0,0-1.6,1.3,2.13,2.13,0,0,0-.07.44Z"/><path class="cls-4" d="M86.8,132.45l-5.57,2.85v-.82L86,132.13v0l-4.73-2.35v-.83l5.57,2.86Z"/><path class="cls-4" d="M90,128.11H87.58v-.89h6v.89H91.09v7.19H90Z"/><path class="cls-4" d="M94.35,126.79H95.4v3.62h0a2,2,0,0,1,.75-.74,2.22,2.22,0,0,1,1.08-.3c.78,0,2,.48,2,2.48v3.45H98.23V132c0-.93-.34-1.73-1.34-1.73a1.51,1.51,0,0,0-1.41,1.06,1.25,1.25,0,0,0-.08.5v3.5H94.35Z"/><path class="cls-4" d="M102.18,127.87a.62.62,0,0,1-.67.65.63.63,0,0,1-.63-.65.64.64,0,0,1,.66-.66A.62.62,0,0,1,102.18,127.87ZM101,135.3v-5.8h1v5.8Z"/><path class="cls-4" d="M103.67,134.23a2.82,2.82,0,0,0,1.39.42c.77,0,1.13-.39,1.13-.87s-.3-.78-1.08-1.07c-1-.37-1.53-.94-1.53-1.64a1.79,1.79,0,0,1,2-1.7,2.94,2.94,0,0,1,1.43.36l-.27.77a2.21,2.21,0,0,0-1.18-.34c-.63,0-1,.36-1,.79s.35.7,1.11,1c1,.39,1.52.89,1.52,1.76,0,1-.79,1.73-2.17,1.73a3.3,3.3,0,0,1-1.63-.39Z"/><path class="cls-4" d="M111.11,131.4c0-.75,0-1.35,0-1.9h1l0,1h0a2.3,2.3,0,0,1,2.07-1.13c1.4,0,2.45,1.19,2.45,2.95,0,2.09-1.27,3.12-2.63,3.12a2,2,0,0,1-1.79-.92h0v3.16h-1Zm1,1.54a2.74,2.74,0,0,0,0,.43,1.63,1.63,0,0,0,1.59,1.24c1.11,0,1.76-.91,1.76-2.24,0-1.17-.61-2.16-1.73-2.16a1.67,1.67,0,0,0-1.59,1.3,1.62,1.62,0,0,0-.07.44Z"/><path class="cls-4" d="M121.15,135.3l-.08-.73h0a2.14,2.14,0,0,1-1.77.87,1.66,1.66,0,0,1-1.78-1.67c0-1.4,1.25-2.17,3.49-2.16v-.12a1.19,1.19,0,0,0-1.32-1.34,2.93,2.93,0,0,0-1.51.43l-.24-.7a3.63,3.63,0,0,1,1.91-.51c1.78,0,2.21,1.21,2.21,2.37v2.17a8.32,8.32,0,0,0,.09,1.39Zm-.15-3c-1.15,0-2.46.18-2.46,1.31a.94.94,0,0,0,1,1,1.45,1.45,0,0,0,1.41-1,1.35,1.35,0,0,0,.06-.34Z"/><path class="cls-4" d="M128.73,129.5c0,.42,0,.89,0,1.6v3.37a3.36,3.36,0,0,1-.83,2.65,3.11,3.11,0,0,1-2.11.69,3.76,3.76,0,0,1-1.93-.48l.26-.8a3.31,3.31,0,0,0,1.7.45c1.08,0,1.88-.56,1.88-2v-.65h0a2.07,2.07,0,0,1-1.85,1,2.6,2.6,0,0,1-2.47-2.83,2.79,2.79,0,0,1,2.62-3.08,1.92,1.92,0,0,1,1.81,1h0l0-.88Zm-1.1,2.29a1.44,1.44,0,0,0-.06-.48,1.51,1.51,0,0,0-1.47-1.11c-1,0-1.73.85-1.73,2.19,0,1.14.58,2.09,1.72,2.09a1.55,1.55,0,0,0,1.46-1.08,1.87,1.87,0,0,0,.08-.57Z"/><path class="cls-4" d="M131,132.59a1.86,1.86,0,0,0,2,2,3.8,3.8,0,0,0,1.61-.3l.18.75a4.67,4.67,0,0,1-1.93.36A2.69,2.69,0,0,1,130,132.5c0-1.75,1-3.13,2.72-3.13a2.46,2.46,0,0,1,2.4,2.73,4.49,4.49,0,0,1,0,.49Zm3.09-.75a1.5,1.5,0,0,0-1.46-1.72,1.76,1.76,0,0,0-1.62,1.72Z"/><path class="cls-4" d="M140.16,127.87a.65.65,0,1,1-1.3,0,.64.64,0,0,1,.66-.66A.62.62,0,0,1,140.16,127.87ZM139,135.3v-5.8h1v5.8Z"/><path class="cls-4" d="M141.65,134.23a2.82,2.82,0,0,0,1.39.42c.77,0,1.13-.39,1.13-.87s-.3-.78-1.08-1.07c-1-.37-1.53-.94-1.53-1.64a1.79,1.79,0,0,1,2-1.7,2.94,2.94,0,0,1,1.43.36l-.27.77a2.22,2.22,0,0,0-1.19-.34c-.62,0-1,.36-1,.79s.35.7,1.11,1c1,.39,1.52.89,1.52,1.76,0,1-.79,1.73-2.17,1.73a3.3,3.3,0,0,1-1.63-.39Z"/><path class="cls-4" d="M149.09,126.79h1.06v8.51h-1.06Z"/><path class="cls-4" d="M157.18,132.35a2.84,2.84,0,0,1-2.89,3.09,2.76,2.76,0,0,1-2.79-3,2.83,2.83,0,0,1,2.88-3.08A2.75,2.75,0,0,1,157.18,132.35Zm-4.61.06c0,1.28.73,2.24,1.76,2.24s1.77-1,1.77-2.26c0-1-.49-2.23-1.74-2.23S152.57,131.31,152.57,132.41Z"/><path class="cls-4" d="M162.65,135.09a4,4,0,0,1-1.67.33,2.75,2.75,0,0,1-2.89-3,3,3,0,0,1,3.12-3.08,3.56,3.56,0,0,1,1.46.3l-.24.82a2.35,2.35,0,0,0-1.22-.28,2,2,0,0,0-2.05,2.19,2,2,0,0,0,2,2.17,3.07,3.07,0,0,0,1.3-.28Z"/><path class="cls-4" d="M167.1,135.3l-.08-.73h0a2.15,2.15,0,0,1-1.77.87,1.66,1.66,0,0,1-1.78-1.67c0-1.4,1.25-2.17,3.49-2.16v-.12a1.19,1.19,0,0,0-1.32-1.34,2.93,2.93,0,0,0-1.51.43l-.24-.7a3.63,3.63,0,0,1,1.91-.51c1.77,0,2.2,1.21,2.2,2.37v2.17a8.24,8.24,0,0,0,.1,1.39Zm-.15-3c-1.16,0-2.46.18-2.46,1.31a.93.93,0,0,0,1,1,1.45,1.45,0,0,0,1.41-1,1.35,1.35,0,0,0,.06-.34Z"/><path class="cls-4" d="M170.89,127.83v1.67h1.52v.8h-1.52v3.13c0,.72.21,1.13.8,1.13a2.68,2.68,0,0,0,.61-.07l0,.79a2.73,2.73,0,0,1-.94.14,1.45,1.45,0,0,1-1.14-.44,2.15,2.15,0,0,1-.41-1.51V130.3H169v-.8h.9v-1.39Z"/><path class="cls-4" d="M174.11,132.59a1.86,1.86,0,0,0,2,2,3.8,3.8,0,0,0,1.61-.3l.18.75a4.67,4.67,0,0,1-1.93.36,2.69,2.69,0,0,1-2.86-2.92c0-1.75,1-3.13,2.73-3.13a2.46,2.46,0,0,1,2.39,2.73,4.49,4.49,0,0,1,0,.49Zm3.1-.75a1.51,1.51,0,0,0-1.47-1.72,1.76,1.76,0,0,0-1.62,1.72Z"/><path class="cls-4" d="M184.55,126.79v7c0,.51,0,1.1,0,1.49h-.95l-.05-1h0a2.18,2.18,0,0,1-2,1.14c-1.41,0-2.49-1.19-2.49-2.95,0-1.93,1.19-3.12,2.61-3.12a2,2,0,0,1,1.75.89h0v-3.47Zm-1.06,5.07a1.65,1.65,0,0,0-.05-.44,1.54,1.54,0,0,0-1.52-1.22c-1.09,0-1.74,1-1.74,2.24s.58,2.14,1.72,2.14a1.58,1.58,0,0,0,1.54-1.25,1.71,1.71,0,0,0,.05-.46Z"/><path class="cls-4" d="M192.06,135.3l-.08-.73h0a2.15,2.15,0,0,1-1.77.87,1.66,1.66,0,0,1-1.78-1.67c0-1.4,1.25-2.17,3.49-2.16v-.12a1.19,1.19,0,0,0-1.32-1.34,2.93,2.93,0,0,0-1.51.43l-.24-.7a3.63,3.63,0,0,1,1.91-.51c1.77,0,2.2,1.21,2.2,2.37v2.17a8.24,8.24,0,0,0,.1,1.39Zm-.16-3c-1.15,0-2.45.18-2.45,1.31a.93.93,0,0,0,1,1,1.45,1.45,0,0,0,1.41-1,1.33,1.33,0,0,0,.05-.34Z"/><path class="cls-4" d="M195.85,127.83v1.67h1.51v.8h-1.51v3.13c0,.72.21,1.13.79,1.13a2.78,2.78,0,0,0,.62-.07l0,.79a2.63,2.63,0,0,1-.93.14,1.45,1.45,0,0,1-1.14-.44,2.15,2.15,0,0,1-.41-1.51V130.3h-.9v-.8h.9v-1.39Z"/><path class="cls-4" d="M201,131.79l5.57-2.87v.83l-4.69,2.35v0l4.69,2.35v.82L201,132.44Z"/><path class="cls-4" d="M212.39,135.09a4,4,0,0,1-1.67.33,2.75,2.75,0,0,1-2.89-3,3,3,0,0,1,3.12-3.08,3.6,3.6,0,0,1,1.46.3l-.24.82a2.37,2.37,0,0,0-1.22-.28,2,2,0,0,0-2,2.19,2,2,0,0,0,2,2.17,3.07,3.07,0,0,0,1.3-.28Z"/><path class="cls-4" d="M218.81,132.35a2.84,2.84,0,0,1-2.89,3.09,2.77,2.77,0,0,1-2.79-3,2.84,2.84,0,0,1,2.88-3.08A2.75,2.75,0,0,1,218.81,132.35Zm-4.61.06c0,1.28.73,2.24,1.76,2.24s1.77-1,1.77-2.26c0-1-.49-2.23-1.74-2.23S214.2,131.31,214.2,132.41Z"/><path class="cls-4" d="M225.15,126.79v7c0,.51,0,1.1,0,1.49h-.94l0-1h0a2.16,2.16,0,0,1-2,1.14c-1.4,0-2.48-1.19-2.48-2.95,0-1.93,1.19-3.12,2.6-3.12a2,2,0,0,1,1.76.89h0v-3.47Zm-1.05,5.07a1.65,1.65,0,0,0,0-.44,1.54,1.54,0,0,0-1.52-1.22c-1.09,0-1.74,1-1.74,2.24s.57,2.14,1.71,2.14a1.58,1.58,0,0,0,1.55-1.25,1.71,1.71,0,0,0,0-.46Z"/><path class="cls-4" d="M227.5,132.59a1.86,1.86,0,0,0,2,2,3.83,3.83,0,0,0,1.61-.3l.18.75a4.72,4.72,0,0,1-1.94.36,2.69,2.69,0,0,1-2.85-2.92c0-1.75,1-3.13,2.72-3.13a2.46,2.46,0,0,1,2.4,2.73,4.49,4.49,0,0,1,0,.49Zm3.09-.75a1.5,1.5,0,0,0-1.46-1.72,1.75,1.75,0,0,0-1.62,1.72Z"/><path class="cls-4" d="M238.4,132.45l-5.56,2.85v-.82l4.72-2.35v0l-4.72-2.35v-.83l5.56,2.86Z"/><path class="cls-4" d="M240.48,129.5l1.14,3.26c.19.53.35,1,.47,1.49h0c.14-.48.3-1,.5-1.49l1.12-3.26h1.11l-2.28,5.8h-1l-2.21-5.8Z"/><path class="cls-4" d="M247,127.87a.62.62,0,0,1-.67.65.63.63,0,0,1-.64-.65.65.65,0,0,1,.66-.66A.63.63,0,0,1,247,127.87Zm-1.17,7.43v-5.8h1.05v5.8Z"/><path class="cls-4" d="M249.24,132.59a1.87,1.87,0,0,0,2,2,3.8,3.8,0,0,0,1.61-.3l.18.75a4.67,4.67,0,0,1-1.93.36,2.69,2.69,0,0,1-2.86-2.92c0-1.75,1-3.13,2.73-3.13a2.46,2.46,0,0,1,2.39,2.73,4.49,4.49,0,0,1,0,.49Zm3.1-.75a1.51,1.51,0,0,0-1.47-1.72,1.76,1.76,0,0,0-1.62,1.72Z"/><path class="cls-4" d="M255.08,129.5l.77,2.95c.17.65.33,1.25.43,1.85h0c.13-.59.32-1.21.52-1.84l.94-3h.89l.9,2.9c.22.7.38,1.31.52,1.9h0a17,17,0,0,1,.45-1.89l.82-2.91h1.05l-1.87,5.8h-1l-.89-2.77c-.2-.64-.37-1.22-.52-1.9h0a15.86,15.86,0,0,1-.53,1.92l-.93,2.75h-1L254,129.5Z"/><path class="cls-4" d="M263.28,134.23a2.79,2.79,0,0,0,1.39.42c.77,0,1.13-.39,1.13-.87s-.3-.78-1.08-1.07c-1-.37-1.53-.94-1.53-1.64a1.79,1.79,0,0,1,2-1.7,2.94,2.94,0,0,1,1.43.36l-.27.77a2.22,2.22,0,0,0-1.19-.34c-.62,0-1,.36-1,.79s.35.7,1.11,1c1,.39,1.52.89,1.52,1.76,0,1-.79,1.73-2.17,1.73A3.3,3.3,0,0,1,263,135Z"/><path class="cls-4" d="M267.29,135.78l3.35-8.69h.81l-3.36,8.69Z"/><path class="cls-4" d="M273.47,127.87a.66.66,0,0,1-1.31,0,.65.65,0,0,1,.66-.66A.63.63,0,0,1,273.47,127.87Zm-1.18,7.43v-5.8h1.06v5.8Z"/><path class="cls-4" d="M275.1,131.07c0-.6,0-1.09-.05-1.57H276l.06,1h0a2.14,2.14,0,0,1,1.92-1.09c.8,0,2.05.48,2.05,2.47v3.46H279V132c0-.94-.35-1.72-1.35-1.72a1.51,1.51,0,0,0-1.41,1.08,1.45,1.45,0,0,0-.07.49v3.49H275.1Z"/><path class="cls-4" d="M286.77,126.79v7c0,.51,0,1.1.05,1.49h-.95l0-1h0a2.16,2.16,0,0,1-2,1.14c-1.4,0-2.48-1.19-2.48-2.95,0-1.93,1.19-3.12,2.6-3.12a1.93,1.93,0,0,1,1.75.89h0v-3.47Zm-1,5.07a1.65,1.65,0,0,0-.05-.44,1.55,1.55,0,0,0-1.52-1.22c-1.09,0-1.74,1-1.74,2.24s.57,2.14,1.71,2.14a1.58,1.58,0,0,0,1.55-1.25,1.71,1.71,0,0,0,.05-.46Z"/><path class="cls-4" d="M289.12,132.59a1.86,1.86,0,0,0,2,2,3.75,3.75,0,0,0,1.6-.3l.18.75a4.63,4.63,0,0,1-1.93.36,2.69,2.69,0,0,1-2.85-2.92c0-1.75,1-3.13,2.72-3.13a2.46,2.46,0,0,1,2.4,2.73,2.63,2.63,0,0,1,0,.49Zm3.09-.75a1.5,1.5,0,0,0-1.46-1.72,1.75,1.75,0,0,0-1.62,1.72Z"/><path class="cls-4" d="M295,129.5l.82,1.25c.22.32.4.62.59.94h0c.19-.34.38-.64.57-.95l.82-1.24H299l-2,2.81,2,3h-1.2L297,134c-.23-.34-.42-.66-.63-1h0c-.19.35-.4.66-.61,1l-.84,1.3h-1.16l2.06-3-2-2.84Z"/><path class="cls-4" d="M299.17,135.78l3.35-8.69h.81L300,135.78Z"/><path class="cls-4" d="M305.35,127.87a.62.62,0,0,1-.67.65.63.63,0,0,1-.64-.65.65.65,0,0,1,.66-.66A.63.63,0,0,1,305.35,127.87Zm-1.17,7.43v-5.8h1.05v5.8Z"/><path class="cls-4" d="M307,131.07c0-.6,0-1.09,0-1.57h.93l.06,1h0a2.12,2.12,0,0,1,1.91-1.09c.81,0,2.06.48,2.06,2.47v3.46h-1.06V132c0-.94-.35-1.72-1.34-1.72a1.51,1.51,0,0,0-1.42,1.08,1.45,1.45,0,0,0-.07.49v3.49H307Z"/><path class="cls-4" d="M318.66,126.79v7c0,.51,0,1.1,0,1.49h-.95l-.05-1h0a2.18,2.18,0,0,1-2,1.14c-1.41,0-2.48-1.19-2.48-2.95,0-1.93,1.18-3.12,2.6-3.12a1.94,1.94,0,0,1,1.75.89h0v-3.47Zm-1.06,5.07a1.65,1.65,0,0,0-.05-.44A1.54,1.54,0,0,0,316,130.2c-1.09,0-1.74,1-1.74,2.24s.58,2.14,1.72,2.14a1.57,1.57,0,0,0,1.54-1.25,1.71,1.71,0,0,0,.05-.46Z"/><path class="cls-4" d="M321,132.59a1.86,1.86,0,0,0,2,2,3.8,3.8,0,0,0,1.61-.3l.18.75a4.67,4.67,0,0,1-1.93.36A2.69,2.69,0,0,1,320,132.5c0-1.75,1-3.13,2.73-3.13a2.46,2.46,0,0,1,2.39,2.73,4.49,4.49,0,0,1,0,.49Zm3.09-.75a1.5,1.5,0,0,0-1.46-1.72,1.76,1.76,0,0,0-1.62,1.72Z"/><path class="cls-4" d="M326.88,129.5l.83,1.25c.21.32.39.62.58.94h0c.19-.34.38-.64.58-.95l.81-1.24h1.14l-2,2.81,2,3h-1.2l-.85-1.3c-.23-.34-.42-.66-.62-1h0c-.19.35-.39.66-.61,1l-.84,1.3h-1.16l2.06-3-2-2.84Z"/><path class="cls-4" d="M331.69,134.68a.71.71,0,0,1,.72-.75.7.7,0,0,1,.71.75.72.72,0,1,1-1.43,0Z"/><path class="cls-4" d="M334.83,129.5l1.14,3.26a13.28,13.28,0,0,1,.47,1.49h0c.13-.48.3-1,.49-1.49l1.13-3.26h1.1l-2.28,5.8h-1l-2.2-5.8Z"/><path class="cls-4" d="M345.33,132.35a2.84,2.84,0,0,1-2.89,3.09,2.76,2.76,0,0,1-2.78-3,2.83,2.83,0,0,1,2.88-3.08A2.75,2.75,0,0,1,345.33,132.35Zm-4.6.06c0,1.28.73,2.24,1.76,2.24s1.76-1,1.76-2.26c0-1-.49-2.23-1.74-2.23S340.73,131.31,340.73,132.41Z"/><path class="cls-4" d="M346.67,126.79h1.05v8.51h-1.05Z"/><path class="cls-4" d="M350.77,127.83v1.67h1.51v.8h-1.51v3.13c0,.72.2,1.13.79,1.13a2.6,2.6,0,0,0,.61-.07l.05.79a2.67,2.67,0,0,1-.93.14,1.44,1.44,0,0,1-1.14-.44,2.15,2.15,0,0,1-.41-1.51V130.3h-.9v-.8h.9v-1.39Z"/><path class="cls-4" d="M353.39,131.79l5.56-2.87v.83l-4.69,2.35v0l4.69,2.35v.82l-5.56-2.86Z"/><path class="cls-4" d="M359.73,135.78l3.35-8.69h.82l-3.36,8.69Z"/><path class="cls-4" d="M368.88,135.09a4,4,0,0,1-1.67.33,2.75,2.75,0,0,1-2.89-3,3,3,0,0,1,3.12-3.08,3.6,3.6,0,0,1,1.46.3l-.24.82a2.37,2.37,0,0,0-1.22-.28,2,2,0,0,0-2.05,2.19,2,2,0,0,0,2,2.17,3.07,3.07,0,0,0,1.3-.28Z"/><path class="cls-4" d="M375.3,132.35a2.84,2.84,0,0,1-2.89,3.09,2.76,2.76,0,0,1-2.79-3,2.83,2.83,0,0,1,2.88-3.08A2.75,2.75,0,0,1,375.3,132.35Zm-4.61.06c0,1.28.73,2.24,1.76,2.24s1.77-1,1.77-2.26c0-1-.49-2.23-1.74-2.23S370.69,131.31,370.69,132.41Z"/><path class="cls-4" d="M381.64,126.79v7c0,.51,0,1.1.05,1.49h-.95l0-1h0a2.16,2.16,0,0,1-2,1.14c-1.4,0-2.48-1.19-2.48-2.95,0-1.93,1.19-3.12,2.6-3.12a1.93,1.93,0,0,1,1.75.89h0v-3.47Zm-1.05,5.07a1.65,1.65,0,0,0,0-.44A1.54,1.54,0,0,0,379,130.2c-1.09,0-1.74,1-1.74,2.24s.57,2.14,1.71,2.14a1.58,1.58,0,0,0,1.55-1.25,1.71,1.71,0,0,0,0-.46Z"/><path class="cls-4" d="M384,132.59a1.86,1.86,0,0,0,2,2,3.75,3.75,0,0,0,1.6-.3l.18.75a4.63,4.63,0,0,1-1.93.36A2.69,2.69,0,0,1,383,132.5c0-1.75,1-3.13,2.72-3.13a2.46,2.46,0,0,1,2.4,2.73,2.63,2.63,0,0,1,0,.49Zm3.09-.75a1.51,1.51,0,0,0-1.46-1.72,1.75,1.75,0,0,0-1.62,1.72Z"/><path class="cls-4" d="M394.89,132.45l-5.56,2.85v-.82l4.72-2.35v0l-4.72-2.35v-.83l5.56,2.86Z"/><path class="cls-4" d="M396.48,131.79l5.56-2.87v.83l-4.69,2.35v0l4.69,2.35v.82l-5.56-2.86Z"/><path class="cls-4" d="M402.83,135.78l3.34-8.69H407l-3.36,8.69Z"/><path class="cls-4" d="M407.83,131.4c0-.75,0-1.35-.05-1.9h1l0,1h0a2.29,2.29,0,0,1,2.07-1.13c1.4,0,2.45,1.19,2.45,2.95,0,2.09-1.27,3.12-2.63,3.12a2,2,0,0,1-1.79-.92h0v3.16h-1Zm1,1.54a2.68,2.68,0,0,0,.05.43,1.63,1.63,0,0,0,1.59,1.24c1.11,0,1.76-.91,1.76-2.24,0-1.17-.61-2.16-1.73-2.16a1.67,1.67,0,0,0-1.59,1.3,1.63,1.63,0,0,0-.08.44Z"/><path class="cls-4" d="M420.14,132.45l-5.56,2.85v-.82l4.72-2.35v0l-4.72-2.35v-.83l5.56,2.86Z"/><path class="cls-4" d="M67.25,160.59l5.57-2.87v.83l-4.69,2.35v0l4.69,2.35v.82l-5.57-2.86Z"/><path class="cls-4" d="M79.5,155.59v7c0,.51,0,1.1,0,1.49h-1l0-1h0a2.16,2.16,0,0,1-2,1.14c-1.4,0-2.48-1.19-2.48-3,0-1.93,1.19-3.12,2.6-3.12a1.93,1.93,0,0,1,1.75.89h0v-3.47Zm-1,5.07a2.2,2.2,0,0,0,0-.44A1.55,1.55,0,0,0,76.88,159c-1.1,0-1.74.95-1.74,2.24s.57,2.14,1.71,2.14a1.58,1.58,0,0,0,1.55-1.25,2.24,2.24,0,0,0,0-.46Z"/><path class="cls-4" d="M82.43,156.67a.62.62,0,0,1-.67.65.63.63,0,0,1-.64-.65.65.65,0,0,1,.66-.66A.63.63,0,0,1,82.43,156.67Zm-1.17,7.43v-5.8h1v5.8Z"/><path class="cls-4" d="M84.47,158.3l1.14,3.26c.19.53.35,1,.47,1.49h0c.13-.48.3-1,.49-1.49l1.12-3.26h1.11l-2.28,5.8h-1l-2.2-5.8Z"/><path class="cls-4" d="M96.52,163.89a4,4,0,0,1-1.67.33,2.75,2.75,0,0,1-2.89-3,3,3,0,0,1,3.12-3.08,3.6,3.6,0,0,1,1.46.3l-.24.81a2.47,2.47,0,0,0-1.22-.27,2,2,0,0,0-2,2.19,2,2,0,0,0,2,2.17,3.07,3.07,0,0,0,1.3-.28Z"/><path class="cls-4" d="M97.76,155.59h1v8.51h-1Z"/><path class="cls-4" d="M103.8,164.1l-.08-.73h0a2.14,2.14,0,0,1-1.77.87,1.66,1.66,0,0,1-1.78-1.67c0-1.4,1.25-2.17,3.49-2.16v-.12A1.19,1.19,0,0,0,102.3,159a2.93,2.93,0,0,0-1.51.43l-.24-.7a3.63,3.63,0,0,1,1.91-.51c1.77,0,2.21,1.21,2.21,2.37v2.17a8.32,8.32,0,0,0,.09,1.39Zm-.15-3c-1.15,0-2.46.18-2.46,1.31a.93.93,0,0,0,1,1,1.45,1.45,0,0,0,1.41-1,1.35,1.35,0,0,0,.06-.34Z"/><path class="cls-4" d="M106.23,163a2.69,2.69,0,0,0,1.39.42c.77,0,1.13-.38,1.13-.86s-.3-.78-1.08-1.07c-1-.37-1.54-.94-1.54-1.64a1.8,1.8,0,0,1,2-1.7,2.9,2.9,0,0,1,1.42.36l-.26.76a2.32,2.32,0,0,0-1.19-.33c-.62,0-1,.36-1,.79s.35.7,1.1,1c1,.39,1.53.89,1.53,1.76s-.79,1.73-2.17,1.73a3.27,3.27,0,0,1-1.63-.39Z"/><path class="cls-4" d="M111,163a2.69,2.69,0,0,0,1.39.42c.77,0,1.13-.38,1.13-.86s-.3-.78-1.08-1.07c-1-.37-1.53-.94-1.53-1.64a1.79,1.79,0,0,1,2-1.7,2.94,2.94,0,0,1,1.43.36l-.27.76a2.32,2.32,0,0,0-1.19-.33c-.62,0-1,.36-1,.79s.35.7,1.11,1c1,.39,1.52.89,1.52,1.76s-.79,1.73-2.17,1.73a3.27,3.27,0,0,1-1.63-.39Z"/><path class="cls-4" d="M115.48,160.06v-.72h6.19v.72Zm0,2.35v-.72h6.19v.72Z"/><path class="cls-4" d="M123.81,155.89l-.21,2.88H123l-.19-2.88Zm1.79,0-.21,2.88h-.63l-.21-2.88Z"/><path class="cls-4" d="M127.07,155.59h1.06v8.51h-1.06Z"/><path class="cls-4" d="M135.16,161.15a2.84,2.84,0,0,1-2.89,3.09,2.77,2.77,0,0,1-2.79-3,2.84,2.84,0,0,1,2.88-3.08A2.75,2.75,0,0,1,135.16,161.15Zm-4.61.06c0,1.28.73,2.23,1.77,2.23s1.76-.94,1.76-2.25c0-1-.49-2.23-1.74-2.23S130.55,160.11,130.55,161.21Z"/><path class="cls-4" d="M137.76,156.63v1.67h1.52v.8h-1.52v3.13c0,.72.21,1.13.8,1.13a2.68,2.68,0,0,0,.61-.07l.05.79a2.73,2.73,0,0,1-.94.14,1.45,1.45,0,0,1-1.14-.44,2.15,2.15,0,0,1-.41-1.51V159.1h-.9v-.8h.9v-1.39Z"/><path class="cls-4" d="M141.74,156.63v1.67h1.51v.8h-1.51v3.13c0,.72.2,1.13.79,1.13a2.68,2.68,0,0,0,.61-.07l.05.79a2.73,2.73,0,0,1-.94.14,1.45,1.45,0,0,1-1.14-.44,2.15,2.15,0,0,1-.41-1.51V159.1h-.89v-.8h.89v-1.39Z"/><path class="cls-4" d="M149.62,161.15a2.84,2.84,0,0,1-2.89,3.09,2.77,2.77,0,0,1-2.79-3,2.84,2.84,0,0,1,2.88-3.08A2.75,2.75,0,0,1,149.62,161.15Zm-4.61.06c0,1.28.73,2.23,1.77,2.23s1.76-.94,1.76-2.25c0-1-.49-2.23-1.74-2.23S145,160.11,145,161.21Z"/><path class="cls-4" d="M151.6,155.89l-.2,2.88h-.65l-.19-2.88Zm1.79,0-.21,2.88h-.63l-.21-2.88Z"/><path class="cls-4" d="M160.35,161.25l-5.57,2.85v-.82l4.73-2.35v0l-4.73-2.35v-.83l5.57,2.86Z"/><path class="cls-4" d="M103.25,175l5.57-2.87V173l-4.69,2.35v0l4.69,2.35v.82l-5.57-2.86Z"/><path class="cls-4" d="M115.5,170v7c0,.51,0,1.1,0,1.49h-1l0-1h0a2.14,2.14,0,0,1-2,1.14c-1.4,0-2.48-1.19-2.48-2.95,0-1.93,1.19-3.12,2.6-3.12a1.93,1.93,0,0,1,1.75.89h0V170Zm-1,5.07a2.2,2.2,0,0,0,0-.44,1.55,1.55,0,0,0-1.52-1.22c-1.1,0-1.74,1-1.74,2.24s.57,2.15,1.71,2.15a1.59,1.59,0,0,0,1.55-1.26,2.24,2.24,0,0,0,0-.46Z"/><path class="cls-4" d="M120.47,178.5l-.08-.73h0a2.15,2.15,0,0,1-1.77.87A1.66,1.66,0,0,1,116.8,177c0-1.4,1.25-2.17,3.49-2.16v-.12a1.19,1.19,0,0,0-1.32-1.34,2.93,2.93,0,0,0-1.51.43l-.24-.7a3.63,3.63,0,0,1,1.91-.51c1.77,0,2.2,1.21,2.2,2.37v2.17a8.24,8.24,0,0,0,.1,1.39Zm-.16-3c-1.15,0-2.45.18-2.45,1.31a.93.93,0,0,0,1,1,1.45,1.45,0,0,0,1.41-1,1.33,1.33,0,0,0,0-.34Z"/><path class="cls-4" d="M122.9,177.43a2.79,2.79,0,0,0,1.39.42c.77,0,1.13-.39,1.13-.87s-.3-.78-1.08-1.07c-1-.37-1.54-.94-1.54-1.64a1.79,1.79,0,0,1,2-1.7,2.91,2.91,0,0,1,1.43.36l-.26.77a2.22,2.22,0,0,0-1.19-.34c-.62,0-1,.36-1,.79s.35.7,1.1,1c1,.39,1.53.89,1.53,1.76,0,1-.8,1.74-2.18,1.74a3.33,3.33,0,0,1-1.63-.4Z"/><path class="cls-4" d="M127.79,170h1.06v3.62h0a1.93,1.93,0,0,1,.76-.74,2.16,2.16,0,0,1,1.08-.3c.78,0,2,.48,2,2.48v3.45h-1v-3.33c0-.93-.35-1.73-1.34-1.73a1.51,1.51,0,0,0-1.42,1.06,1.26,1.26,0,0,0-.07.5v3.5h-1.06Z"/><path class="cls-4" d="M134.41,178.5c0-.39,0-1,0-1.49v-7h1.05v3.65h0a2.15,2.15,0,0,1,2-1.07c1.44,0,2.46,1.2,2.45,3,0,2.08-1.31,3.11-2.61,3.11a2.07,2.07,0,0,1-1.94-1.09h0l0,.95Zm1.09-2.32a2.33,2.33,0,0,0,0,.38,1.65,1.65,0,0,0,1.59,1.24c1.1,0,1.76-.9,1.76-2.23,0-1.17-.6-2.16-1.73-2.16a1.67,1.67,0,0,0-1.6,1.29,1.78,1.78,0,0,0-.06.43Z"/><path class="cls-4" d="M146.53,175.55a2.84,2.84,0,0,1-2.89,3.09,2.76,2.76,0,0,1-2.78-3,2.83,2.83,0,0,1,2.88-3.08A2.74,2.74,0,0,1,146.53,175.55Zm-4.6.06c0,1.28.73,2.24,1.76,2.24s1.76-.95,1.76-2.26c0-1-.49-2.23-1.73-2.23S141.93,174.51,141.93,175.61Z"/><path class="cls-4" d="M151.08,178.5l-.08-.73h0a2.14,2.14,0,0,1-1.77.87,1.66,1.66,0,0,1-1.78-1.67c0-1.4,1.25-2.17,3.49-2.16v-.12a1.19,1.19,0,0,0-1.32-1.34,2.93,2.93,0,0,0-1.51.43l-.24-.7a3.63,3.63,0,0,1,1.91-.51c1.77,0,2.21,1.21,2.21,2.37v2.17a8.32,8.32,0,0,0,.09,1.39Zm-.15-3c-1.15,0-2.46.18-2.46,1.31a.93.93,0,0,0,1,1,1.45,1.45,0,0,0,1.41-1,1.35,1.35,0,0,0,.06-.34Z"/><path class="cls-4" d="M153.65,174.51c0-.68,0-1.27-.05-1.81h.93l0,1.14h.05a1.75,1.75,0,0,1,1.61-1.27,1.39,1.39,0,0,1,.3,0v1a1.88,1.88,0,0,0-.36,0,1.5,1.5,0,0,0-1.42,1.36,3.47,3.47,0,0,0,0,.49v3.09h-1Z"/><path class="cls-4" d="M162.47,170v7c0,.51,0,1.1.05,1.49h-1l0-1h0a2.15,2.15,0,0,1-2,1.14c-1.4,0-2.48-1.19-2.48-2.95,0-1.93,1.18-3.12,2.6-3.12a1.93,1.93,0,0,1,1.75.89h0V170Zm-1.06,5.07a2.18,2.18,0,0,0,0-.44,1.56,1.56,0,0,0-1.53-1.22c-1.09,0-1.74,1-1.74,2.24s.58,2.15,1.72,2.15a1.6,1.6,0,0,0,1.55-1.26,2.25,2.25,0,0,0,0-.46Z"/><path class="cls-4" d="M169.71,175.65l-5.57,2.85v-.82l4.73-2.35v0L164.14,173v-.83l5.57,2.86Z"/><path class="cls-4" d="M171.29,175l5.57-2.87V173l-4.69,2.35v0l4.69,2.35v.82l-5.57-2.86Z"/><path class="cls-4" d="M177.64,179l3.35-8.69h.81L178.44,179Z"/><path class="cls-4" d="M187.66,170v7c0,.51,0,1.1,0,1.49h-.94l0-1h0a2.16,2.16,0,0,1-2,1.14c-1.41,0-2.49-1.19-2.49-2.95,0-1.93,1.19-3.12,2.61-3.12a2,2,0,0,1,1.75.89h0V170Zm-1.06,5.07a1.65,1.65,0,0,0,0-.44A1.54,1.54,0,0,0,185,173.4c-1.09,0-1.74,1-1.74,2.24s.58,2.15,1.72,2.15a1.59,1.59,0,0,0,1.54-1.26,1.71,1.71,0,0,0,0-.46Z"/><path class="cls-4" d="M192.63,178.5l-.09-.73h0a2.17,2.17,0,0,1-1.78.87A1.65,1.65,0,0,1,189,177c0-1.4,1.24-2.17,3.49-2.16v-.12a1.2,1.2,0,0,0-1.32-1.34,2.9,2.9,0,0,0-1.51.43l-.24-.7a3.6,3.6,0,0,1,1.9-.51c1.78,0,2.21,1.21,2.21,2.37v2.17a7.31,7.31,0,0,0,.1,1.39Zm-.16-3c-1.15,0-2.46.18-2.46,1.31a.94.94,0,0,0,1,1,1.45,1.45,0,0,0,1.4-1,1,1,0,0,0,.06-.34Z"/><path class="cls-4" d="M195.05,177.43a2.82,2.82,0,0,0,1.39.42c.77,0,1.13-.39,1.13-.87s-.3-.78-1.08-1.07c-1-.37-1.53-.94-1.53-1.64a1.79,1.79,0,0,1,2-1.7,2.94,2.94,0,0,1,1.43.36l-.27.77a2.22,2.22,0,0,0-1.19-.34c-.62,0-1,.36-1,.79s.35.7,1.11,1c1,.39,1.52.89,1.52,1.76,0,1-.79,1.74-2.17,1.74a3.3,3.3,0,0,1-1.63-.4Z"/><path class="cls-4" d="M200,170H201v3.62h0a1.91,1.91,0,0,1,.75-.74,2.19,2.19,0,0,1,1.08-.3c.78,0,2,.48,2,2.48v3.45h-1.06v-3.33c0-.93-.34-1.73-1.34-1.73a1.53,1.53,0,0,0-1.42,1.06,1.26,1.26,0,0,0-.07.5v3.5H200Z"/><path class="cls-4" d="M206.56,178.5c0-.39.05-1,.05-1.49v-7h1v3.65h0a2.18,2.18,0,0,1,2-1.07c1.44,0,2.46,1.2,2.45,3,0,2.08-1.31,3.11-2.6,3.11a2.07,2.07,0,0,1-1.94-1.09h0l-.05.95Zm1.09-2.32a1.58,1.58,0,0,0,0,.38,1.63,1.63,0,0,0,1.58,1.24c1.11,0,1.76-.9,1.76-2.23,0-1.17-.59-2.16-1.72-2.16a1.69,1.69,0,0,0-1.61,1.29,2.47,2.47,0,0,0-.06.43Z"/><path class="cls-4" d="M218.69,175.55a2.84,2.84,0,0,1-2.89,3.09,2.76,2.76,0,0,1-2.78-3,2.83,2.83,0,0,1,2.87-3.08A2.75,2.75,0,0,1,218.69,175.55Zm-4.61.06c0,1.28.73,2.24,1.77,2.24s1.76-.95,1.76-2.26c0-1-.49-2.23-1.74-2.23S214.08,174.51,214.08,175.61Z"/><path class="cls-4" d="M223.24,178.5l-.09-.73h0a2.17,2.17,0,0,1-1.78.87,1.65,1.65,0,0,1-1.77-1.67c0-1.4,1.24-2.17,3.49-2.16v-.12a1.19,1.19,0,0,0-1.32-1.34,2.9,2.9,0,0,0-1.51.43l-.24-.7a3.6,3.6,0,0,1,1.9-.51c1.78,0,2.21,1.21,2.21,2.37v2.17a7.31,7.31,0,0,0,.1,1.39Zm-.16-3c-1.15,0-2.46.18-2.46,1.31a.94.94,0,0,0,1,1,1.45,1.45,0,0,0,1.4-1,1,1,0,0,0,.06-.34Z"/><path class="cls-4" d="M225.81,174.51c0-.68,0-1.27-.05-1.81h.92l0,1.14h.05a1.74,1.74,0,0,1,1.6-1.27,1.32,1.32,0,0,1,.3,0v1a1.79,1.79,0,0,0-.36,0,1.48,1.48,0,0,0-1.41,1.36,2.38,2.38,0,0,0-.05.49v3.09h-1Z"/><path class="cls-4" d="M234.62,170v7c0,.51,0,1.1,0,1.49h-.95l0-1h0a2.14,2.14,0,0,1-2,1.14c-1.4,0-2.48-1.19-2.48-2.95,0-1.93,1.19-3.12,2.6-3.12a1.93,1.93,0,0,1,1.75.89h0V170Zm-1.05,5.07a1.65,1.65,0,0,0,0-.44A1.55,1.55,0,0,0,232,173.4c-1.09,0-1.74,1-1.74,2.24s.57,2.15,1.71,2.15a1.59,1.59,0,0,0,1.55-1.26,1.71,1.71,0,0,0,0-.46Z"/><path class="cls-4" d="M241.86,175.65l-5.57,2.85v-.82l4.73-2.35v0L236.29,173v-.83l5.57,2.86Z"/><path class="cls-4" d="M67.25,189.39l5.57-2.87v.83l-4.69,2.35v0l4.69,2.35v.82L67.25,190Z"/><path class="cls-4" d="M73.6,193.38,77,184.69h.81l-3.36,8.69Z"/><path class="cls-4" d="M83.62,184.39v7c0,.51,0,1.1,0,1.49h-1l0-1h0a2.18,2.18,0,0,1-2,1.14c-1.41,0-2.49-1.19-2.49-2.95,0-1.93,1.19-3.12,2.61-3.12a2,2,0,0,1,1.75.89h0v-3.47Zm-1.06,5.07a1.65,1.65,0,0,0,0-.44A1.54,1.54,0,0,0,81,187.8c-1.09,0-1.74.95-1.74,2.24s.58,2.15,1.72,2.15a1.59,1.59,0,0,0,1.54-1.26,1.71,1.71,0,0,0,0-.46Z"/><path class="cls-4" d="M86.55,185.47a.66.66,0,0,1-1.31,0,.65.65,0,0,1,.66-.66A.63.63,0,0,1,86.55,185.47Zm-1.18,7.43v-5.8h1.06v5.8Z"/><path class="cls-4" d="M88.59,187.1l1.14,3.26c.19.53.35,1,.47,1.49h0c.13-.48.3-1,.49-1.49l1.13-3.26H93l-2.27,5.8h-1l-2.21-5.8Z"/><path class="cls-4" d="M99.43,190.05l-5.56,2.85v-.82l4.72-2.35v0l-4.72-2.35v-.83l5.56,2.86Z"/><path class="cls-4" d="M67.25,232.59l5.57-2.87v.83l-4.69,2.35v0l4.69,2.35v.82l-5.57-2.86Z"/><path class="cls-4" d="M74.34,235a2.76,2.76,0,0,0,1.4.42c.76,0,1.12-.38,1.12-.86s-.3-.78-1.08-1.07c-1-.37-1.53-.94-1.53-1.64a1.79,1.79,0,0,1,2-1.7,2.94,2.94,0,0,1,1.43.36l-.26.76a2.32,2.32,0,0,0-1.19-.33c-.63,0-1,.36-1,.79s.34.7,1.1,1c1,.39,1.52.89,1.52,1.76s-.79,1.73-2.17,1.73a3.33,3.33,0,0,1-1.63-.39Z"/><path class="cls-4" d="M83.38,235.89a4,4,0,0,1-1.67.33,2.75,2.75,0,0,1-2.89-3,3,3,0,0,1,3.12-3.08,3.6,3.6,0,0,1,1.46.3l-.24.81a2.47,2.47,0,0,0-1.22-.27,2,2,0,0,0-2,2.19,2,2,0,0,0,2,2.17,3.07,3.07,0,0,0,1.3-.28Z"/><path class="cls-4" d="M84.62,232.11c0-.68,0-1.27-.05-1.81h.92l0,1.14h0a1.74,1.74,0,0,1,1.6-1.27,1.32,1.32,0,0,1,.3,0v1a1.79,1.79,0,0,0-.36,0,1.48,1.48,0,0,0-1.41,1.36,2.38,2.38,0,0,0,0,.49v3.09h-1Z"/><path class="cls-4" d="M89.76,228.67a.62.62,0,0,1-.67.65.63.63,0,0,1-.63-.65.64.64,0,0,1,.66-.66A.62.62,0,0,1,89.76,228.67Zm-1.17,7.43v-5.8h1v5.8Z"/><path class="cls-4" d="M91.4,232.19c0-.74,0-1.34-.05-1.89h1l0,1h0a2.28,2.28,0,0,1,2.06-1.12c1.4,0,2.46,1.19,2.46,3,0,2.09-1.27,3.12-2.64,3.12a2,2,0,0,1-1.79-.92h0v3.16h-1Zm1,1.55a1.88,1.88,0,0,0,0,.43,1.62,1.62,0,0,0,1.58,1.24c1.12,0,1.76-.91,1.76-2.24,0-1.17-.61-2.16-1.72-2.16a1.69,1.69,0,0,0-1.6,1.3,2.13,2.13,0,0,0-.07.44Z"/><path class="cls-4" d="M99.5,228.63v1.67H101v.8H99.5v3.13c0,.72.2,1.13.79,1.13a2.68,2.68,0,0,0,.61-.07l0,.79a2.73,2.73,0,0,1-.94.14,1.45,1.45,0,0,1-1.14-.44,2.15,2.15,0,0,1-.41-1.51V231.1h-.9v-.8h.9v-1.39Z"/><path class="cls-4" d="M104.6,235a2.69,2.69,0,0,0,1.39.42c.77,0,1.12-.38,1.12-.86s-.3-.78-1.07-1.07c-1.05-.37-1.54-.94-1.54-1.64a1.79,1.79,0,0,1,2-1.7,2.91,2.91,0,0,1,1.43.36l-.26.76a2.32,2.32,0,0,0-1.19-.33c-.62,0-1,.36-1,.79s.35.7,1.1,1c1,.39,1.52.89,1.52,1.76s-.79,1.73-2.17,1.73a3.33,3.33,0,0,1-1.63-.39Z"/><path class="cls-4" d="M109.49,232.11c0-.68,0-1.27,0-1.81h.93l0,1.14h0a1.75,1.75,0,0,1,1.61-1.27,1.39,1.39,0,0,1,.3,0v1a1.88,1.88,0,0,0-.36,0,1.5,1.5,0,0,0-1.42,1.36,3.47,3.47,0,0,0,0,.49v3.09h-1.05Z"/><path class="cls-4" d="M117.43,235.89a3.9,3.9,0,0,1-1.66.33,2.75,2.75,0,0,1-2.89-3,3,3,0,0,1,3.12-3.08,3.6,3.6,0,0,1,1.46.3l-.24.81A2.5,2.5,0,0,0,116,231a2.18,2.18,0,0,0,0,4.36,3,3,0,0,0,1.29-.28Z"/><path class="cls-4" d="M118.28,232.06v-.72h6.19v.72Zm0,2.35v-.72h6.19v.72Z"/><path class="cls-4" d="M126.6,227.89l-.2,2.88h-.65l-.19-2.88Zm1.79,0-.2,2.88h-.64l-.2-2.88Z"/><path class="cls-4" d="M129,236.58l3.35-8.69h.81l-3.36,8.69Z"/><path class="cls-4" d="M133.94,236.1c0-.39,0-1,0-1.49v-7H135v3.65h0a2.15,2.15,0,0,1,2-1.07c1.44,0,2.46,1.2,2.45,3,0,2.08-1.31,3.11-2.61,3.11a2.07,2.07,0,0,1-1.94-1.09h0l-.05.95Zm1.09-2.32a1.58,1.58,0,0,0,.05.38,1.63,1.63,0,0,0,1.58,1.24c1.1,0,1.76-.9,1.76-2.23,0-1.17-.6-2.16-1.73-2.16a1.67,1.67,0,0,0-1.6,1.29,1.78,1.78,0,0,0-.06.43Z"/><path class="cls-4" d="M145.67,234.52c0,.6,0,1.13.05,1.58h-.94l-.06-.94h0a2.21,2.21,0,0,1-1.92,1.08c-.91,0-2-.51-2-2.55V230.3h1.05v3.21c0,1.11.34,1.85,1.3,1.85a1.47,1.47,0,0,0,1.48-1.5V230.3h1.06Z"/><path class="cls-4" d="M148.6,228.67a.62.62,0,0,1-.67.65.63.63,0,0,1-.64-.65A.65.65,0,0,1,148,228,.63.63,0,0,1,148.6,228.67Zm-1.18,7.43v-5.8h1.06v5.8Z"/><path class="cls-4" d="M150.23,227.59h1.06v8.51h-1.06Z"/><path class="cls-4" d="M158.08,227.59v7c0,.51,0,1.1,0,1.49h-.94l-.05-1h0a2.18,2.18,0,0,1-2,1.14c-1.41,0-2.49-1.19-2.49-3,0-1.93,1.19-3.12,2.61-3.12a2,2,0,0,1,1.75.89h0v-3.47ZM157,232.66a1.65,1.65,0,0,0-.05-.44,1.54,1.54,0,0,0-1.52-1.22c-1.09,0-1.74.95-1.74,2.24s.58,2.14,1.72,2.14a1.58,1.58,0,0,0,1.54-1.25,1.71,1.71,0,0,0,.05-.46Z"/><path class="cls-4" d="M159.69,235a2.69,2.69,0,0,0,1.39.42c.77,0,1.13-.38,1.13-.86s-.3-.78-1.08-1.07c-1-.37-1.54-.94-1.54-1.64a1.79,1.79,0,0,1,2-1.7,2.91,2.91,0,0,1,1.43.36l-.26.76a2.32,2.32,0,0,0-1.19-.33c-.62,0-1,.36-1,.79s.35.7,1.1,1c1,.39,1.53.89,1.53,1.76s-.8,1.73-2.18,1.73a3.33,3.33,0,0,1-1.63-.39Z"/><path class="cls-4" d="M163.7,236.58l3.34-8.69h.82l-3.36,8.69Z"/><path class="cls-4" d="M168.7,232.19c0-.74,0-1.34,0-1.89h.95l.05,1h0a2.29,2.29,0,0,1,2.06-1.12c1.41,0,2.46,1.19,2.46,3,0,2.09-1.27,3.12-2.64,3.12a2,2,0,0,1-1.78-.92h0v3.16h-1Zm1,1.55a2.68,2.68,0,0,0,0,.43,1.62,1.62,0,0,0,1.58,1.24c1.12,0,1.77-.91,1.77-2.24,0-1.17-.62-2.16-1.73-2.16a1.69,1.69,0,0,0-1.6,1.3,2.13,2.13,0,0,0-.07.44Z"/><path class="cls-4" d="M175.53,232.11c0-.68,0-1.27-.05-1.81h.92l0,1.14h.05a1.74,1.74,0,0,1,1.6-1.27,1.32,1.32,0,0,1,.3,0v1a1.71,1.71,0,0,0-.36,0,1.48,1.48,0,0,0-1.41,1.36,2.38,2.38,0,0,0-.05.49v3.09h-1Z"/><path class="cls-4" d="M184.58,233.15a2.84,2.84,0,0,1-2.89,3.09,2.76,2.76,0,0,1-2.78-3,2.83,2.83,0,0,1,2.88-3.08A2.74,2.74,0,0,1,184.58,233.15Zm-4.6.06c0,1.28.73,2.23,1.76,2.23s1.76-.94,1.76-2.25c0-1-.49-2.23-1.73-2.23S180,232.11,180,233.21Z"/><path class="cls-4" d="M190.93,227.59v7c0,.51,0,1.1,0,1.49H190l-.05-1h0a2.16,2.16,0,0,1-2,1.14c-1.4,0-2.48-1.19-2.48-3,0-1.93,1.19-3.12,2.6-3.12a1.93,1.93,0,0,1,1.75.89h0v-3.47Zm-1.05,5.07a2.2,2.2,0,0,0,0-.44,1.55,1.55,0,0,0-1.52-1.22c-1.1,0-1.74.95-1.74,2.24s.57,2.14,1.71,2.14a1.58,1.58,0,0,0,1.55-1.25,2.24,2.24,0,0,0,0-.46Z"/><path class="cls-4" d="M197.54,234.52c0,.6,0,1.13.05,1.58h-.93l-.06-.94h0a2.18,2.18,0,0,1-1.92,1.08c-.91,0-2-.51-2-2.55V230.3h1.06v3.21c0,1.11.33,1.85,1.29,1.85a1.5,1.5,0,0,0,1.49-1.5V230.3h1Z"/><path class="cls-4" d="M203.44,235.89a4,4,0,0,1-1.67.33,2.75,2.75,0,0,1-2.89-3,3,3,0,0,1,3.12-3.08,3.6,3.6,0,0,1,1.46.3l-.24.81A2.5,2.5,0,0,0,202,231a2,2,0,0,0-2.05,2.19,2,2,0,0,0,2,2.17,3.07,3.07,0,0,0,1.3-.28Z"/><path class="cls-4" d="M206.1,228.63v1.67h1.51v.8H206.1v3.13c0,.72.21,1.13.79,1.13a2.6,2.6,0,0,0,.61-.07l.05.79a2.67,2.67,0,0,1-.93.14,1.45,1.45,0,0,1-1.14-.44,2.15,2.15,0,0,1-.41-1.51V231.1h-.9v-.8h.9v-1.39Z"/><path class="cls-4" d="M210,228.67a.66.66,0,0,1-1.31,0,.65.65,0,0,1,.66-.66A.63.63,0,0,1,210,228.67Zm-1.18,7.43v-5.8h1.06v5.8Z"/><path class="cls-4" d="M216.86,233.15a2.84,2.84,0,0,1-2.89,3.09,2.76,2.76,0,0,1-2.78-3,2.83,2.83,0,0,1,2.88-3.08A2.74,2.74,0,0,1,216.86,233.15Zm-4.6.06c0,1.28.73,2.23,1.76,2.23s1.76-.94,1.76-2.25c0-1-.49-2.23-1.74-2.23S212.26,232.11,212.26,233.21Z"/><path class="cls-4" d="M218.2,231.87c0-.6,0-1.09,0-1.57h.94l0,1h0a2.14,2.14,0,0,1,1.92-1.09c.8,0,2,.48,2,2.47v3.46h-1.06v-3.34c0-.94-.34-1.72-1.34-1.72a1.49,1.49,0,0,0-1.41,1.08,1.44,1.44,0,0,0-.08.49v3.49H218.2Z"/><path class="cls-4" d="M224,236.58l3.35-8.69h.81l-3.36,8.69Z"/><path class="cls-4" d="M227.56,237.78a1.65,1.65,0,0,0,1.15-.44c.29-.34.39-.79.39-2.18V230.3h1.06v5.26a3.17,3.17,0,0,1-.7,2.39,2.64,2.64,0,0,1-1.79.66Zm2.72-9.11a.62.62,0,0,1-.66.65.64.64,0,0,1-.65-.65.65.65,0,0,1,.67-.66A.62.62,0,0,1,230.28,228.67Z"/><path class="cls-4" d="M231.75,235a2.69,2.69,0,0,0,1.39.42c.76,0,1.12-.38,1.12-.86s-.3-.78-1.08-1.07c-1-.37-1.53-.94-1.53-1.64a1.79,1.79,0,0,1,2-1.7,2.91,2.91,0,0,1,1.43.36l-.26.76a2.32,2.32,0,0,0-1.19-.33c-.63,0-1,.36-1,.79s.34.7,1.1,1c1,.39,1.52.89,1.52,1.76s-.79,1.73-2.17,1.73a3.33,3.33,0,0,1-1.63-.39Z"/><path class="cls-4" d="M235.75,236.58l3.35-8.69h.82l-3.36,8.69Z"/><path class="cls-4" d="M245.77,227.59v7c0,.51,0,1.1,0,1.49h-.95l-.05-1h0a2.17,2.17,0,0,1-2,1.14c-1.4,0-2.48-1.19-2.48-3,0-1.93,1.18-3.12,2.6-3.12a1.93,1.93,0,0,1,1.75.89h0v-3.47Zm-1.06,5.07a2.18,2.18,0,0,0,0-.44,1.56,1.56,0,0,0-1.53-1.22c-1.09,0-1.74.95-1.74,2.24s.58,2.14,1.72,2.14a1.59,1.59,0,0,0,1.55-1.25,2.25,2.25,0,0,0,0-.46Z"/><path class="cls-4" d="M248.7,228.67a.62.62,0,0,1-.67.65.63.63,0,0,1-.64-.65.65.65,0,0,1,.66-.66A.63.63,0,0,1,248.7,228.67Zm-1.18,7.43v-5.8h1.06v5.8Z"/><path class="cls-4" d="M250.19,235a2.69,2.69,0,0,0,1.39.42c.77,0,1.13-.38,1.13-.86s-.3-.78-1.08-1.07c-1-.37-1.54-.94-1.54-1.64a1.8,1.8,0,0,1,2-1.7,2.9,2.9,0,0,1,1.42.36l-.26.76a2.32,2.32,0,0,0-1.19-.33c-.62,0-1,.36-1,.79s.35.7,1.1,1c1,.39,1.53.89,1.53,1.76s-.79,1.73-2.17,1.73a3.27,3.27,0,0,1-1.63-.39Z"/><path class="cls-4" d="M256.36,228.63v1.67h1.51v.8h-1.51v3.13c0,.72.2,1.13.79,1.13a2.68,2.68,0,0,0,.61-.07l.05.79a2.73,2.73,0,0,1-.94.14,1.45,1.45,0,0,1-1.14-.44,2.15,2.15,0,0,1-.41-1.51V231.1h-.89v-.8h.89v-1.39Z"/><path class="cls-4" d="M258.17,236.58l3.35-8.69h.81L259,236.58Z"/><path class="cls-4" d="M263.17,227.59h1.06v8.51h-1.06Z"/><path class="cls-4" d="M271.26,233.15a2.84,2.84,0,0,1-2.89,3.09,2.77,2.77,0,0,1-2.79-3,2.84,2.84,0,0,1,2.88-3.08A2.75,2.75,0,0,1,271.26,233.15Zm-4.61.06c0,1.28.73,2.23,1.77,2.23s1.76-.94,1.76-2.25c0-1-.49-2.23-1.74-2.23S266.65,232.11,266.65,233.21Z"/><path class="cls-4" d="M273.86,228.63v1.67h1.51v.8h-1.51v3.13c0,.72.21,1.13.8,1.13a2.76,2.76,0,0,0,.61-.07l0,.79a2.63,2.63,0,0,1-.93.14,1.45,1.45,0,0,1-1.14-.44,2.15,2.15,0,0,1-.41-1.51V231.1h-.9v-.8h.9v-1.39Z"/><path class="cls-4" d="M277.84,228.63v1.67h1.51v.8h-1.51v3.13c0,.72.2,1.13.79,1.13a2.68,2.68,0,0,0,.61-.07l.05.79a2.73,2.73,0,0,1-.94.14,1.45,1.45,0,0,1-1.14-.44,2.15,2.15,0,0,1-.41-1.51V231.1h-.9v-.8h.9v-1.39Z"/><path class="cls-4" d="M285.72,233.15a2.84,2.84,0,0,1-2.89,3.09,2.77,2.77,0,0,1-2.79-3,2.84,2.84,0,0,1,2.88-3.08A2.75,2.75,0,0,1,285.72,233.15Zm-4.61.06c0,1.28.73,2.23,1.76,2.23s1.77-.94,1.77-2.25c0-1-.49-2.23-1.74-2.23S281.11,232.11,281.11,233.21Z"/><path class="cls-4" d="M286.51,235.48a.71.71,0,0,1,.72-.75.7.7,0,0,1,.71.75.72.72,0,1,1-1.43,0Z"/><path class="cls-4" d="M289.2,236.1c0-.39.05-1,.05-1.49v-7h1v3.65h0a2.15,2.15,0,0,1,2-1.07c1.44,0,2.46,1.2,2.45,3,0,2.08-1.31,3.11-2.6,3.11a2.07,2.07,0,0,1-1.94-1.09h0l-.05.95Zm1.09-2.32a2.32,2.32,0,0,0,0,.38,1.63,1.63,0,0,0,1.58,1.24c1.11,0,1.77-.9,1.77-2.23,0-1.17-.6-2.16-1.73-2.16a1.69,1.69,0,0,0-1.61,1.29,2.47,2.47,0,0,0-.06.43Z"/><path class="cls-4" d="M300.93,234.52c0,.6,0,1.13.05,1.58h-.93l-.06-.94h0a2.2,2.2,0,0,1-1.92,1.08c-.91,0-2-.51-2-2.55V230.3h1.06v3.21c0,1.11.33,1.85,1.29,1.85a1.5,1.5,0,0,0,1.49-1.5V230.3h1.05Z"/><path class="cls-4" d="M302.69,231.87c0-.6,0-1.09-.05-1.57h.94l.06,1h0a2.14,2.14,0,0,1,1.92-1.09c.8,0,2.05.48,2.05,2.47v3.46h-1.06v-3.34c0-.94-.34-1.72-1.34-1.72a1.51,1.51,0,0,0-1.41,1.08,1.44,1.44,0,0,0-.08.49v3.49h-1.05Z"/><path class="cls-4" d="M314.36,227.59v7c0,.51,0,1.1.05,1.49h-1l0-1h0a2.16,2.16,0,0,1-2,1.14c-1.4,0-2.48-1.19-2.48-3,0-1.93,1.19-3.12,2.6-3.12a1.93,1.93,0,0,1,1.75.89h0v-3.47Zm-1.05,5.07a2.2,2.2,0,0,0-.05-.44,1.56,1.56,0,0,0-1.53-1.22c-1.09,0-1.73.95-1.73,2.24s.57,2.14,1.71,2.14a1.58,1.58,0,0,0,1.55-1.25,2.24,2.24,0,0,0,.05-.46Z"/><path class="cls-4" d="M316.12,227.59h1.05v8.51h-1.05Z"/><path class="cls-4" d="M319.54,233.39a1.86,1.86,0,0,0,2,2,3.75,3.75,0,0,0,1.6-.3l.18.75a4.63,4.63,0,0,1-1.93.36,2.69,2.69,0,0,1-2.85-2.92c0-1.75,1-3.13,2.72-3.13a2.45,2.45,0,0,1,2.4,2.73,2.63,2.63,0,0,1,0,.49Zm3.09-.75a1.51,1.51,0,0,0-1.46-1.72,1.75,1.75,0,0,0-1.62,1.72Z"/><path class="cls-4" d="M324.56,235.48a.71.71,0,0,1,.72-.75.76.76,0,0,1,0,1.51A.71.71,0,0,1,324.56,235.48Z"/><path class="cls-4" d="M325.88,237.78a1.65,1.65,0,0,0,1.15-.44c.29-.34.4-.79.4-2.18V230.3h1.06v5.26a3.17,3.17,0,0,1-.7,2.39,2.66,2.66,0,0,1-1.8.66Zm2.73-9.11a.62.62,0,0,1-.66.65.63.63,0,0,1-.65-.65A.64.64,0,0,1,328,228,.63.63,0,0,1,328.61,228.67Z"/><path class="cls-4" d="M330.07,235a2.69,2.69,0,0,0,1.39.42c.77,0,1.13-.38,1.13-.86s-.3-.78-1.08-1.07c-1-.37-1.53-.94-1.53-1.64a1.79,1.79,0,0,1,2-1.7,2.87,2.87,0,0,1,1.42.36l-.26.76A2.32,2.32,0,0,0,332,231c-.62,0-1,.36-1,.79s.35.7,1.11,1c1,.39,1.52.89,1.52,1.76s-.79,1.73-2.17,1.73a3.3,3.3,0,0,1-1.63-.39Z"/><path class="cls-4" d="M335.75,227.89l-.21,2.88h-.65l-.19-2.88Zm1.78,0-.2,2.88h-.64l-.2-2.88Z"/><path class="cls-4" d="M344.49,233.25l-5.56,2.85v-.82l4.72-2.35v0l-4.72-2.35v-.83l5.56,2.86Z"/><rect class="cls-1" x="52.94" y="13.22" width="417.83" height="14.17"/><rect class="cls-10" x="61.54" y="222.31" width="305.23" height="19.69"/><line class="cls-11" x1="284.75" y1="418.92" x2="284.75" y2="387.02"/><path class="cls-4" d="M284.75,381a30.15,30.15,0,0,0,4.76,8.54l-4.76-1.72L280,389.53A30.12,30.12,0,0,0,284.75,381Z"/><rect class="cls-11" x="196.1" y="339.31" width="175.3" height="42.46"/><path class="cls-4" d="M229.05,363.27a3.81,3.81,0,0,1-1.67.34,2.76,2.76,0,0,1-2.89-3,3,3,0,0,1,3.12-3.09,3.6,3.6,0,0,1,1.46.3l-.24.82a2.48,2.48,0,0,0-1.22-.28,2,2,0,0,0-2.05,2.2,2,2,0,0,0,2,2.17,3,3,0,0,0,1.3-.29Z"/><path class="cls-4" d="M235.47,360.54a2.84,2.84,0,0,1-2.9,3.08,2.76,2.76,0,0,1-2.78-3,2.83,2.83,0,0,1,2.88-3.08A2.75,2.75,0,0,1,235.47,360.54Zm-4.61.06c0,1.27.73,2.23,1.76,2.23s1.77-.95,1.77-2.26c0-1-.5-2.23-1.74-2.23S230.86,359.49,230.86,360.6Z"/><path class="cls-4" d="M236.8,359.25c0-.59,0-1.09-.05-1.57h.93l0,.94h0a2,2,0,0,1,1.82-1.07,1.74,1.74,0,0,1,1.65,1.16h0a2.42,2.42,0,0,1,.65-.75,2,2,0,0,1,1.28-.41c.77,0,1.91.51,1.91,2.52v3.42h-1V360.2c0-1.11-.41-1.78-1.26-1.78a1.36,1.36,0,0,0-1.25,1,1.62,1.62,0,0,0-.08.52v3.59h-1V360c0-.92-.4-1.59-1.21-1.59a1.42,1.42,0,0,0-1.3,1.05,1.3,1.3,0,0,0-.09.52v3.5h-1Z"/><path class="cls-4" d="M246.81,359.58c0-.75,0-1.34-.05-1.9h1l0,1h0a2.27,2.27,0,0,1,2.06-1.13c1.41,0,2.46,1.19,2.46,2.95,0,2.09-1.27,3.12-2.64,3.12a2,2,0,0,1-1.78-.91h0v3.15h-1Zm1,1.55a2.82,2.82,0,0,0,.05.43,1.63,1.63,0,0,0,1.58,1.23c1.12,0,1.77-.91,1.77-2.24,0-1.16-.62-2.16-1.73-2.16a1.7,1.7,0,0,0-1.6,1.31,2,2,0,0,0-.07.43Z"/><path class="cls-4" d="M254.81,356.05a.62.62,0,0,1-.67.65.63.63,0,0,1-.64-.65.65.65,0,0,1,.66-.66A.63.63,0,0,1,254.81,356.05Zm-1.17,7.44v-5.81h1.05v5.81Z"/><path class="cls-4" d="M256.44,355h1.06v8.52h-1.06Z"/><path class="cls-4" d="M259.86,360.78a1.86,1.86,0,0,0,2,2,3.8,3.8,0,0,0,1.61-.3l.18.76a4.67,4.67,0,0,1-1.93.36,2.69,2.69,0,0,1-2.85-2.93c0-1.75,1-3.13,2.72-3.13a2.47,2.47,0,0,1,2.4,2.74,4.35,4.35,0,0,1,0,.49ZM263,360a1.5,1.5,0,0,0-1.47-1.71,1.74,1.74,0,0,0-1.61,1.71Z"/><path class="cls-4" d="M270.3,355v7c0,.51,0,1.1.05,1.5h-1l0-1h0a2.14,2.14,0,0,1-2,1.14c-1.4,0-2.48-1.19-2.48-2.95,0-1.93,1.19-3.12,2.6-3.12a1.93,1.93,0,0,1,1.75.89h0V355Zm-1.06,5.08a2.22,2.22,0,0,0,0-.45,1.56,1.56,0,0,0-1.53-1.22c-1.09,0-1.73,1-1.73,2.24s.57,2.15,1.71,2.15a1.59,1.59,0,0,0,1.55-1.26,2.19,2.19,0,0,0,0-.46Z"/><path class="cls-4" d="M275.87,356v1.66h1.51v.81h-1.51v3.13c0,.72.2,1.13.79,1.13a2.08,2.08,0,0,0,.61-.08l.05.79a2.42,2.42,0,0,1-.93.15,1.45,1.45,0,0,1-1.14-.45,2.13,2.13,0,0,1-.41-1.51v-3.16h-.9v-.81h.9v-1.39Z"/><path class="cls-4" d="M283.75,360.54a2.84,2.84,0,0,1-2.89,3.08,2.76,2.76,0,0,1-2.78-3,2.83,2.83,0,0,1,2.88-3.08A2.75,2.75,0,0,1,283.75,360.54Zm-4.6.06c0,1.27.73,2.23,1.76,2.23s1.76-.95,1.76-2.26c0-1-.49-2.23-1.74-2.23S279.15,359.49,279.15,360.6Z"/><path class="cls-4" d="M287.63,355h1.06v8.52h-1.06Z"/><path class="cls-4" d="M295.72,360.54a2.84,2.84,0,0,1-2.89,3.08,2.76,2.76,0,0,1-2.79-3,2.83,2.83,0,0,1,2.88-3.08A2.75,2.75,0,0,1,295.72,360.54Zm-4.61.06c0,1.27.73,2.23,1.76,2.23s1.77-.95,1.77-2.26c0-1-.5-2.23-1.74-2.23S291.11,359.49,291.11,360.6Z"/><path class="cls-4" d="M298.32,356v1.66h1.51v.81h-1.51v3.13c0,.72.21,1.13.79,1.13a2.22,2.22,0,0,0,.62-.08l0,.79a2.39,2.39,0,0,1-.93.15,1.46,1.46,0,0,1-1.14-.45,2.13,2.13,0,0,1-.41-1.51v-3.16h-.9v-.81h.9v-1.39Z"/><path class="cls-4" d="M302.29,356v1.66h1.52v.81h-1.52v3.13c0,.72.21,1.13.8,1.13a2.19,2.19,0,0,0,.61-.08l0,.79a2.39,2.39,0,0,1-.93.15,1.46,1.46,0,0,1-1.14-.45,2.13,2.13,0,0,1-.41-1.51v-3.16h-.9v-.81h.9v-1.39Z"/><path class="cls-4" d="M310.18,360.54a2.84,2.84,0,0,1-2.9,3.08,2.76,2.76,0,0,1-2.78-3,2.83,2.83,0,0,1,2.88-3.08A2.75,2.75,0,0,1,310.18,360.54Zm-4.61.06c0,1.27.73,2.23,1.76,2.23s1.77-.95,1.77-2.26c0-1-.5-2.23-1.74-2.23S305.57,359.49,305.57,360.6Z"/><path class="cls-4" d="M311,362.86a.71.71,0,0,1,.72-.75.76.76,0,0,1,0,1.51A.71.71,0,0,1,311,362.86Z"/><path class="cls-4" d="M313.66,363.49c0-.4,0-1,0-1.5v-7h1v3.65h0a2.17,2.17,0,0,1,2-1.07c1.44,0,2.46,1.2,2.45,3,0,2.08-1.31,3.11-2.6,3.11a2.07,2.07,0,0,1-2-1.09h0l-.05,1Zm1.09-2.33a1.52,1.52,0,0,0,.05.38,1.61,1.61,0,0,0,1.58,1.24c1.1,0,1.76-.9,1.76-2.23,0-1.16-.6-2.16-1.72-2.16a1.68,1.68,0,0,0-1.61,1.3,1.71,1.71,0,0,0-.06.43Z"/><path class="cls-4" d="M325.39,361.91c0,.59,0,1.12.05,1.58h-.94l-.06-.95h0a2.19,2.19,0,0,1-1.92,1.08c-.91,0-2-.5-2-2.54v-3.4h1.05v3.22c0,1.1.34,1.85,1.3,1.85a1.53,1.53,0,0,0,1.39-1,1.57,1.57,0,0,0,.1-.54v-3.57h1.05Z"/><path class="cls-4" d="M327.15,359.25c0-.59,0-1.09,0-1.57H328l.06,1h0a2.13,2.13,0,0,1,1.92-1.09c.8,0,2,.48,2,2.47v3.47H331v-3.35c0-.93-.35-1.71-1.34-1.71a1.5,1.5,0,0,0-1.42,1.08,1.75,1.75,0,0,0-.07.49v3.49h-1.05Z"/><path class="cls-4" d="M338.82,355v7c0,.51,0,1.1.05,1.5h-.95l-.05-1h0a2.15,2.15,0,0,1-2,1.14c-1.4,0-2.48-1.19-2.48-2.95,0-1.93,1.18-3.12,2.6-3.12a1.93,1.93,0,0,1,1.75.89h0V355Zm-1.06,5.08a2.22,2.22,0,0,0,0-.45,1.56,1.56,0,0,0-1.53-1.22c-1.09,0-1.74,1-1.74,2.24s.58,2.15,1.72,2.15a1.6,1.6,0,0,0,1.55-1.26,2.19,2.19,0,0,0,0-.46Z"/><path class="cls-4" d="M340.57,355h1.06v8.52h-1.06Z"/><path class="cls-4" d="M344,360.78a1.86,1.86,0,0,0,2,2,3.8,3.8,0,0,0,1.61-.3l.18.76a4.67,4.67,0,0,1-1.93.36,2.69,2.69,0,0,1-2.85-2.93c0-1.75,1-3.13,2.72-3.13a2.47,2.47,0,0,1,2.4,2.74,4.35,4.35,0,0,1,0,.49Zm3.1-.76a1.5,1.5,0,0,0-1.47-1.71A1.74,1.74,0,0,0,344,360Z"/><path class="cls-4" d="M349,362.86a.71.71,0,0,1,.72-.75.76.76,0,0,1,0,1.51A.71.71,0,0,1,349,362.86Z"/><path class="cls-4" d="M350.34,365.17a1.7,1.7,0,0,0,1.15-.45c.29-.33.4-.79.4-2.18v-4.86h1.05V363a3.17,3.17,0,0,1-.69,2.38,2.69,2.69,0,0,1-1.8.67Zm2.72-9.12a.62.62,0,0,1-.66.65.63.63,0,0,1-.64-.65.64.64,0,0,1,.67-.66A.62.62,0,0,1,353.06,356.05Z"/><path class="cls-4" d="M354.53,362.41a2.79,2.79,0,0,0,1.39.42c.77,0,1.13-.38,1.13-.87s-.3-.77-1.08-1.06c-1.05-.37-1.54-.95-1.54-1.65a1.8,1.8,0,0,1,2-1.7,2.9,2.9,0,0,1,1.42.36l-.26.77a2.31,2.31,0,0,0-1.19-.34c-.62,0-1,.36-1,.79s.35.7,1.1,1c1,.38,1.53.89,1.53,1.75,0,1-.79,1.74-2.17,1.74a3.27,3.27,0,0,1-1.63-.4Z"/><rect class="cls-10" x="60" y="150.31" width="190.15" height="53.54"/><line class="cls-10" x1="344" y1="177.08" x2="267.45" y2="177.08"/><path class="cls-7" d="M255.38,177.08c5.68-2.11,12.73-5.71,17.1-9.51L269,177.08l3.44,9.51C268.11,182.78,261.06,179.18,255.38,177.08Z"/><path class="cls-4" d="M353.85,168.89c0-.68,0-1.27-.05-1.81h.93l0,1.14h.05a1.74,1.74,0,0,1,1.61-1.27,1.39,1.39,0,0,1,.3,0v1a1.32,1.32,0,0,0-.36,0,1.49,1.49,0,0,0-1.42,1.36,3.37,3.37,0,0,0-.05.49v3.09h-1Z"/><path class="cls-4" d="M358.24,170.17a1.87,1.87,0,0,0,2,2,3.8,3.8,0,0,0,1.61-.3l.18.75a4.67,4.67,0,0,1-1.93.36,2.69,2.69,0,0,1-2.86-2.92c0-1.75,1-3.13,2.73-3.13a2.46,2.46,0,0,1,2.4,2.73,4.15,4.15,0,0,1,0,.49Zm3.1-.75a1.51,1.51,0,0,0-1.47-1.72,1.77,1.77,0,0,0-1.62,1.72Z"/><path class="cls-4" d="M363.67,168.65c0-.6,0-1.09-.05-1.57h.93l.06,1h0a2.14,2.14,0,0,1,1.92-1.09c.8,0,2.05.48,2.05,2.47v3.46h-1.06v-3.34c0-.94-.35-1.72-1.34-1.72a1.5,1.5,0,0,0-1.42,1.08,1.75,1.75,0,0,0-.07.49v3.49h-1.05Z"/><path class="cls-4" d="M375.34,164.37v7c0,.52,0,1.11.05,1.5h-.95l-.05-1h0a2.17,2.17,0,0,1-2,1.14c-1.4,0-2.48-1.19-2.48-3,0-1.93,1.18-3.11,2.6-3.11a1.94,1.94,0,0,1,1.75.88h0v-3.46Zm-1.06,5.07a2.18,2.18,0,0,0,0-.44,1.57,1.57,0,0,0-1.53-1.23c-1.09,0-1.74,1-1.74,2.25s.58,2.14,1.72,2.14a1.59,1.59,0,0,0,1.55-1.26,2.09,2.09,0,0,0,0-.45Z"/><path class="cls-4" d="M377.68,170.17a1.87,1.87,0,0,0,2,2,3.8,3.8,0,0,0,1.61-.3l.18.75a4.67,4.67,0,0,1-1.93.36,2.69,2.69,0,0,1-2.86-2.92c0-1.75,1-3.13,2.73-3.13a2.46,2.46,0,0,1,2.4,2.73,4.15,4.15,0,0,1,0,.49Zm3.1-.75a1.51,1.51,0,0,0-1.47-1.72,1.77,1.77,0,0,0-1.62,1.72Z"/><path class="cls-4" d="M383.11,168.89c0-.68,0-1.27-.05-1.81H384l0,1.14h0a1.75,1.75,0,0,1,1.61-1.27,1.32,1.32,0,0,1,.3,0v1a1.28,1.28,0,0,0-.36,0,1.48,1.48,0,0,0-1.41,1.36,2.38,2.38,0,0,0-.05.49v3.09h-1Z"/><path class="cls-4" d="M387.5,170.17a1.86,1.86,0,0,0,2,2,3.83,3.83,0,0,0,1.61-.3l.17.75a4.63,4.63,0,0,1-1.93.36,2.69,2.69,0,0,1-2.85-2.92c0-1.75,1-3.13,2.72-3.13a2.45,2.45,0,0,1,2.4,2.73,2.72,2.72,0,0,1,0,.49Zm3.09-.75a1.51,1.51,0,0,0-1.46-1.72,1.75,1.75,0,0,0-1.62,1.72Z"/><path class="cls-4" d="M397.93,164.37v7c0,.52,0,1.11.05,1.5h-1l0-1h0a2.16,2.16,0,0,1-2,1.14c-1.4,0-2.48-1.19-2.48-3,0-1.93,1.19-3.11,2.6-3.11a1.94,1.94,0,0,1,1.75.88h0v-3.46Zm-1.05,5.07a1.65,1.65,0,0,0-.05-.44,1.55,1.55,0,0,0-1.52-1.23c-1.09,0-1.74,1-1.74,2.25s.57,2.14,1.71,2.14a1.67,1.67,0,0,0,1.6-1.71Z"/><path class="cls-4" d="M402.18,172.88c0-.39.05-1,.05-1.5v-7h1V168h0a2.17,2.17,0,0,1,2-1.06c1.44,0,2.46,1.2,2.45,3,0,2.07-1.31,3.11-2.61,3.11a2.06,2.06,0,0,1-1.94-1.1h0l0,1Zm1.1-2.32a2.33,2.33,0,0,0,0,.38,1.65,1.65,0,0,0,1.59,1.24c1.1,0,1.76-.9,1.76-2.24,0-1.16-.6-2.15-1.73-2.15a1.67,1.67,0,0,0-1.6,1.29,1.78,1.78,0,0,0-.06.43Z"/><path class="cls-4" d="M409.36,167.08l1.27,3.43c.13.38.28.84.37,1.19h0c.11-.35.23-.8.37-1.22l1.15-3.4h1.12l-1.59,4.14c-.75,2-1.27,3-2,3.63a2.7,2.7,0,0,1-1.29.68l-.27-.88a3.05,3.05,0,0,0,.93-.52,3.28,3.28,0,0,0,.89-1.17,1,1,0,0,0,.08-.26,1.18,1.18,0,0,0-.07-.27l-2.15-5.35Z"/><path class="cls-4" d="M417.17,164.37h1.06v8.51h-1.06Z"/><path class="cls-4" d="M425.26,169.93a2.84,2.84,0,0,1-2.89,3.09,2.76,2.76,0,0,1-2.78-3,2.83,2.83,0,0,1,2.87-3.08A2.75,2.75,0,0,1,425.26,169.93Zm-4.61.06c0,1.27.73,2.23,1.77,2.23s1.76-.94,1.76-2.25c0-1-.49-2.23-1.74-2.23S420.65,168.89,420.65,170Z"/><path class="cls-4" d="M427.86,165.41v1.67h1.52v.8h-1.52V171c0,.72.21,1.13.8,1.13a2.68,2.68,0,0,0,.61-.07l0,.79a2.63,2.63,0,0,1-.93.14,1.45,1.45,0,0,1-1.14-.44,2.15,2.15,0,0,1-.41-1.51v-3.17h-.9v-.8h.9v-1.39Z"/><path class="cls-4" d="M431.84,165.41v1.67h1.51v.8h-1.51V171c0,.72.2,1.13.79,1.13a2.68,2.68,0,0,0,.61-.07l.05.79a2.73,2.73,0,0,1-.94.14,1.47,1.47,0,0,1-1.14-.44,2.15,2.15,0,0,1-.4-1.51v-3.17h-.9v-.8h.9v-1.39Z"/><path class="cls-4" d="M439.72,169.93a2.84,2.84,0,0,1-2.89,3.09,2.76,2.76,0,0,1-2.78-3,2.83,2.83,0,0,1,2.87-3.08A2.75,2.75,0,0,1,439.72,169.93Zm-4.61.06c0,1.27.73,2.23,1.77,2.23s1.76-.94,1.76-2.25c0-1-.49-2.23-1.74-2.23S435.11,168.89,435.11,170Z"/><path class="cls-4" d="M440.51,172.26a.72.72,0,0,1,.72-.76.76.76,0,1,1-.72.76Z"/><path class="cls-4" d="M441.83,174.56a1.7,1.7,0,0,0,1.15-.44c.29-.34.4-.79.4-2.18v-4.86h1.06v5.26a3.17,3.17,0,0,1-.7,2.39,2.68,2.68,0,0,1-1.8.66Zm2.73-9.11a.62.62,0,0,1-.66.65.63.63,0,0,1-.65-.65.64.64,0,0,1,.67-.66A.63.63,0,0,1,444.56,165.45Z"/><path class="cls-4" d="M446,171.8a2.69,2.69,0,0,0,1.39.42c.77,0,1.13-.38,1.13-.86s-.3-.78-1.08-1.07c-1-.37-1.54-.94-1.54-1.64a1.79,1.79,0,0,1,2-1.7,2.77,2.77,0,0,1,1.42.36l-.26.76a2.32,2.32,0,0,0-1.19-.33c-.62,0-1,.36-1,.79s.35.7,1.1,1c1,.39,1.53.89,1.53,1.75,0,1-.79,1.74-2.17,1.74a3.27,3.27,0,0,1-1.63-.39Z"/><path class="cls-4" d="M453.88,167.08l.77,2.95c.16.65.32,1.25.43,1.85h0c.14-.59.33-1.22.52-1.84l.95-3h.89l.9,2.9c.21.7.38,1.31.51,1.9h0a16.78,16.78,0,0,1,.44-1.89l.83-2.91h1l-1.87,5.8h-1l-.89-2.77a18.89,18.89,0,0,1-.51-1.9h0a17.93,17.93,0,0,1-.52,1.92l-.94,2.75h-1l-1.75-5.8Z"/><path class="cls-4" d="M462.29,164.37h1.06V168h0a1.93,1.93,0,0,1,.76-.74,2.16,2.16,0,0,1,1.08-.3c.78,0,2,.48,2,2.48v3.45h-1.05v-3.33c0-.94-.35-1.73-1.35-1.73a1.51,1.51,0,0,0-1.41,1.06,1.26,1.26,0,0,0-.07.5v3.5h-1.06Z"/><path class="cls-4" d="M470.13,165.45a.66.66,0,0,1-1.31,0,.65.65,0,0,1,.66-.66A.63.63,0,0,1,470.13,165.45ZM469,172.88v-5.8H470v5.8Z"/><path class="cls-4" d="M475.9,172.67a4,4,0,0,1-1.67.33,2.75,2.75,0,0,1-2.89-3,2.94,2.94,0,0,1,3.12-3.08,3.44,3.44,0,0,1,1.46.3l-.24.81a2.5,2.5,0,0,0-1.22-.27,2,2,0,0,0-2,2.19,2,2,0,0,0,2,2.17,3.07,3.07,0,0,0,1.3-.28Z"/><path class="cls-4" d="M477.14,164.37h1.05V168h0a1.91,1.91,0,0,1,.75-.74,2.16,2.16,0,0,1,1.08-.3c.78,0,2,.48,2,2.48v3.45H481v-3.33c0-.94-.35-1.73-1.34-1.73a1.51,1.51,0,0,0-1.42,1.06,1.26,1.26,0,0,0-.07.5v3.5h-1.05Z"/><path class="cls-4" d="M487.52,165.45a.63.63,0,0,1-.68.65.63.63,0,0,1-.63-.65.64.64,0,0,1,.66-.66A.63.63,0,0,1,487.52,165.45Zm-1.18,7.43v-5.8h1.05v5.8Z"/><path class="cls-4" d="M489,171.8a2.72,2.72,0,0,0,1.39.42c.77,0,1.13-.38,1.13-.86s-.3-.78-1.08-1.07c-1-.37-1.53-.94-1.53-1.64a1.78,1.78,0,0,1,2-1.7,2.83,2.83,0,0,1,1.43.36l-.27.76a2.25,2.25,0,0,0-1.18-.33c-.63,0-1,.36-1,.79s.34.7,1.1,1c1,.39,1.52.89,1.52,1.75,0,1-.79,1.74-2.17,1.74a3.3,3.3,0,0,1-1.63-.39Z"/><path class="cls-4" d="M353.71,186.2a2.69,2.69,0,0,0,1.39.42c.77,0,1.13-.38,1.13-.86s-.3-.78-1.08-1.07c-1-.37-1.54-.94-1.54-1.64a1.79,1.79,0,0,1,2-1.7,2.81,2.81,0,0,1,1.43.36l-.26.76a2.32,2.32,0,0,0-1.19-.33c-.62,0-1,.36-1,.79s.35.7,1.1,1c1,.39,1.52.89,1.52,1.75,0,1-.79,1.74-2.17,1.74a3.33,3.33,0,0,1-1.63-.39Z"/><path class="cls-4" d="M359.87,179.81v1.67h1.52v.8h-1.52v3.13c0,.72.21,1.13.8,1.13a2.76,2.76,0,0,0,.61-.07l0,.79a2.63,2.63,0,0,1-.93.14,1.45,1.45,0,0,1-1.14-.44,2.15,2.15,0,0,1-.41-1.51v-3.17h-.9v-.8h.9v-1.39Z"/><path class="cls-4" d="M367.76,184.33a2.85,2.85,0,0,1-2.9,3.09,2.76,2.76,0,0,1-2.78-3,2.83,2.83,0,0,1,2.88-3.08A2.75,2.75,0,0,1,367.76,184.33Zm-4.61.06c0,1.27.73,2.23,1.76,2.23s1.77-.94,1.77-2.25c0-1-.5-2.23-1.74-2.23S363.15,183.29,363.15,184.39Z"/><path class="cls-4" d="M369.09,183.29c0-.68,0-1.27,0-1.81H370l0,1.14h.05a1.74,1.74,0,0,1,1.61-1.27,1.39,1.39,0,0,1,.3,0v1a1.32,1.32,0,0,0-.36,0,1.48,1.48,0,0,0-1.42,1.36,3.37,3.37,0,0,0-.05.49v3.09h-1Z"/><path class="cls-4" d="M373.48,184.57a1.87,1.87,0,0,0,2,2,3.8,3.8,0,0,0,1.61-.3l.18.75a4.67,4.67,0,0,1-1.93.36,2.69,2.69,0,0,1-2.86-2.92c0-1.75,1-3.13,2.73-3.13a2.46,2.46,0,0,1,2.4,2.73,4.15,4.15,0,0,1,0,.49Zm3.1-.75a1.51,1.51,0,0,0-1.47-1.72,1.77,1.77,0,0,0-1.62,1.72Z"/><path class="cls-4" d="M383.92,178.77v7c0,.52,0,1.11.05,1.5h-1l0-1h0a2.17,2.17,0,0,1-2,1.14c-1.41,0-2.48-1.19-2.48-3,0-1.93,1.18-3.11,2.6-3.11a1.94,1.94,0,0,1,1.75.88h0v-3.46Zm-1.06,5.07a1.65,1.65,0,0,0-.05-.44,1.55,1.55,0,0,0-1.52-1.23c-1.09,0-1.74,1-1.74,2.25s.58,2.14,1.72,2.14a1.57,1.57,0,0,0,1.54-1.26,1.59,1.59,0,0,0,.05-.45Z"/><path class="cls-4" d="M389.39,179.85a.65.65,0,1,1-1.3,0,.64.64,0,0,1,.66-.66A.62.62,0,0,1,389.39,179.85Zm-1.17,7.43v-5.8h1v5.8Z"/><path class="cls-4" d="M391,183.05c0-.6,0-1.09,0-1.57h.93l.06,1h0a2.12,2.12,0,0,1,1.91-1.09c.81,0,2.06.48,2.06,2.47v3.46h-1.06v-3.34c0-.94-.35-1.72-1.34-1.72a1.5,1.5,0,0,0-1.42,1.08,1.45,1.45,0,0,0-.07.49v3.49H391Z"/><path class="cls-4" d="M400.23,178.77h1v8.51h-1Z"/><path class="cls-4" d="M408.31,184.33a2.84,2.84,0,0,1-2.89,3.09,2.76,2.76,0,0,1-2.78-3,2.83,2.83,0,0,1,2.88-3.08A2.74,2.74,0,0,1,408.31,184.33Zm-4.6.06c0,1.27.73,2.23,1.76,2.23s1.76-.94,1.76-2.25c0-1-.49-2.23-1.73-2.23S403.71,183.29,403.71,184.39Z"/><path class="cls-4" d="M410.92,179.81v1.67h1.51v.8h-1.51v3.13c0,.72.2,1.13.79,1.13a2.6,2.6,0,0,0,.61-.07l.05.79a2.67,2.67,0,0,1-.93.14,1.44,1.44,0,0,1-1.14-.44,2.15,2.15,0,0,1-.41-1.51v-3.17H409v-.8h.9v-1.39Z"/><path class="cls-4" d="M414.89,179.81v1.67h1.51v.8h-1.51v3.13c0,.72.21,1.13.79,1.13a2.6,2.6,0,0,0,.61-.07l0,.79a2.67,2.67,0,0,1-.93.14,1.45,1.45,0,0,1-1.14-.44,2.15,2.15,0,0,1-.41-1.51v-3.17H413v-.8h.9v-1.39Z"/><path class="cls-4" d="M422.77,184.33a2.84,2.84,0,0,1-2.89,3.09,2.76,2.76,0,0,1-2.78-3,2.83,2.83,0,0,1,2.88-3.08A2.74,2.74,0,0,1,422.77,184.33Zm-4.6.06c0,1.27.73,2.23,1.76,2.23s1.76-.94,1.76-2.25c0-1-.49-2.23-1.73-2.23S418.17,183.29,418.17,184.39Z"/><path class="cls-4" d="M423.57,186.66a.72.72,0,0,1,.72-.76.76.76,0,1,1-.72.76Z"/><path class="cls-4" d="M426.26,187.28c0-.39,0-1,0-1.5v-7h1.05v3.64h0a2.17,2.17,0,0,1,2-1.06c1.44,0,2.46,1.2,2.45,3,0,2.07-1.31,3.11-2.61,3.11a2.06,2.06,0,0,1-1.94-1.1h0l-.05,1Zm1.09-2.32a2.33,2.33,0,0,0,0,.38,1.65,1.65,0,0,0,1.59,1.24c1.1,0,1.76-.9,1.76-2.24,0-1.16-.6-2.15-1.73-2.15a1.67,1.67,0,0,0-1.6,1.29,1.78,1.78,0,0,0-.06.43Z"/><path class="cls-4" d="M438,185.7c0,.6,0,1.13.05,1.58h-.94l-.06-.94h0a2.21,2.21,0,0,1-1.92,1.08c-.91,0-2-.51-2-2.55v-3.39h1v3.21c0,1.11.34,1.85,1.3,1.85a1.53,1.53,0,0,0,1.39-1,1.57,1.57,0,0,0,.09-.54v-3.56H438Z"/><path class="cls-4" d="M439.74,183.05c0-.6,0-1.09,0-1.57h.93l.06,1h0a2.12,2.12,0,0,1,1.91-1.09c.81,0,2.06.48,2.06,2.47v3.46h-1.06v-3.34c0-.94-.35-1.72-1.34-1.72a1.5,1.5,0,0,0-1.42,1.08,1.45,1.45,0,0,0-.07.49v3.49h-1.06Z"/><path class="cls-4" d="M451.42,178.77v7c0,.52,0,1.11.05,1.5h-1l0-1h0a2.18,2.18,0,0,1-2,1.14c-1.41,0-2.49-1.19-2.49-3,0-1.93,1.19-3.11,2.61-3.11a2,2,0,0,1,1.75.88h0v-3.46Zm-1.06,5.07a1.65,1.65,0,0,0-.05-.44,1.55,1.55,0,0,0-1.52-1.23c-1.09,0-1.74,1-1.74,2.25s.58,2.14,1.72,2.14a1.57,1.57,0,0,0,1.54-1.26,1.59,1.59,0,0,0,.05-.45Z"/><path class="cls-4" d="M453.17,178.77h1.06v8.51h-1.06Z"/><path class="cls-4" d="M456.59,184.57a1.87,1.87,0,0,0,2,2,3.8,3.8,0,0,0,1.61-.3l.18.75a4.67,4.67,0,0,1-1.93.36,2.69,2.69,0,0,1-2.86-2.92c0-1.75,1-3.13,2.73-3.13a2.46,2.46,0,0,1,2.4,2.73,4.15,4.15,0,0,1,0,.49Zm3.1-.75a1.51,1.51,0,0,0-1.47-1.72,1.77,1.77,0,0,0-1.62,1.72Z"/><path class="cls-4" d="M461.62,186.66a.72.72,0,0,1,.72-.76.76.76,0,1,1-.72.76Z"/><path class="cls-4" d="M462.94,189a1.7,1.7,0,0,0,1.15-.44c.29-.34.4-.79.4-2.18v-4.86h1.05v5.26a3.22,3.22,0,0,1-.69,2.39,2.68,2.68,0,0,1-1.8.66Zm2.72-9.11a.62.62,0,0,1-.66.65.63.63,0,0,1-.64-.65.64.64,0,0,1,.67-.66A.62.62,0,0,1,465.66,179.85Z"/><path class="cls-4" d="M467.13,186.2a2.69,2.69,0,0,0,1.39.42c.77,0,1.13-.38,1.13-.86s-.3-.78-1.08-1.07c-1.05-.37-1.54-.94-1.54-1.64a1.79,1.79,0,0,1,2-1.7,2.81,2.81,0,0,1,1.43.36l-.26.76a2.32,2.32,0,0,0-1.19-.33c-.62,0-1,.36-1,.79s.35.7,1.1,1c1,.39,1.53.89,1.53,1.75,0,1-.8,1.74-2.18,1.74a3.33,3.33,0,0,1-1.63-.39Z"/><line class="cls-12" x1="284.75" y1="339.31" x2="284.75" y2="254.07"/><path class="cls-13" d="M284.75,242c2.11,5.68,5.71,12.73,9.51,17.09l-9.51-3.44-9.51,3.44C279.05,254.73,282.65,247.68,284.75,242Z"/><path class="cls-4" d="M24,253.71H21.53v-.89h6v.89H25v7.19H24Z"/><path class="cls-4" d="M28.29,252.39h1.06V256h0a2,2,0,0,1,.76-.74,2.16,2.16,0,0,1,1.08-.3c.78,0,2,.48,2,2.48v3.45H32.18v-3.33c0-.93-.35-1.73-1.34-1.73a1.51,1.51,0,0,0-1.42,1.06,1.26,1.26,0,0,0-.07.5v3.5H28.29Z"/><path class="cls-4" d="M36.13,253.47a.62.62,0,0,1-.67.65.63.63,0,0,1-.64-.65.65.65,0,0,1,.66-.66A.63.63,0,0,1,36.13,253.47ZM35,260.9v-5.8H36v5.8Z"/><path class="cls-4" d="M37.62,259.83a2.79,2.79,0,0,0,1.39.42c.77,0,1.13-.39,1.13-.87s-.3-.78-1.08-1.07c-1.05-.37-1.54-.94-1.54-1.64a1.8,1.8,0,0,1,2-1.7,2.9,2.9,0,0,1,1.42.36l-.26.77a2.22,2.22,0,0,0-1.19-.34c-.62,0-1,.36-1,.79s.35.7,1.1,1c1,.39,1.53.89,1.53,1.76S40.36,261,39,261a3.34,3.34,0,0,1-1.64-.39Z"/><path class="cls-4" d="M45.06,257c0-.75,0-1.35-.05-1.9h1l0,1h0A2.27,2.27,0,0,1,48.09,255c1.41,0,2.46,1.19,2.46,3,0,2.09-1.27,3.12-2.64,3.12a2,2,0,0,1-1.78-.91h0v3.15h-1Zm1,1.54a2.68,2.68,0,0,0,0,.43,1.62,1.62,0,0,0,1.58,1.24c1.12,0,1.77-.91,1.77-2.24,0-1.17-.62-2.16-1.73-2.16a1.69,1.69,0,0,0-1.6,1.3,2.13,2.13,0,0,0-.07.44Z"/><path class="cls-4" d="M55.1,260.9l-.08-.73h0a2.15,2.15,0,0,1-1.77.87,1.66,1.66,0,0,1-1.78-1.67c0-1.4,1.25-2.17,3.49-2.16v-.12a1.19,1.19,0,0,0-1.32-1.34,2.93,2.93,0,0,0-1.51.43l-.24-.7a3.61,3.61,0,0,1,1.91-.51c1.77,0,2.2,1.21,2.2,2.37v2.17a8.24,8.24,0,0,0,.1,1.39Zm-.16-3c-1.15,0-2.45.18-2.45,1.31a.93.93,0,0,0,1,1,1.43,1.43,0,0,0,1.4-1,1,1,0,0,0,.06-.34Z"/><path class="cls-4" d="M62.67,255.1c0,.42-.05.89-.05,1.6v3.37a3.36,3.36,0,0,1-.82,2.65,3.12,3.12,0,0,1-2.11.69,3.79,3.79,0,0,1-1.94-.48l.27-.8a3.25,3.25,0,0,0,1.7.45c1.08,0,1.87-.56,1.87-2v-.65h0a2.08,2.08,0,0,1-1.85,1,2.59,2.59,0,0,1-2.47-2.83A2.78,2.78,0,0,1,59.86,255a2,2,0,0,1,1.82,1h0l0-.88Zm-1.09,2.29a1.44,1.44,0,0,0-.06-.48A1.52,1.52,0,0,0,60,255.8c-1,0-1.72.85-1.72,2.19,0,1.14.57,2.09,1.71,2.09A1.55,1.55,0,0,0,61.5,259a1.87,1.87,0,0,0,.08-.57Z"/><path class="cls-4" d="M65,258.19a1.86,1.86,0,0,0,2,2,3.75,3.75,0,0,0,1.6-.3l.18.76a4.84,4.84,0,0,1-1.93.35A2.69,2.69,0,0,1,64,258.1c0-1.75,1-3.13,2.72-3.13a2.46,2.46,0,0,1,2.4,2.73,2.63,2.63,0,0,1,0,.49Zm3.09-.75a1.51,1.51,0,0,0-1.46-1.72A1.75,1.75,0,0,0,65,257.44Z"/><path class="cls-4" d="M74.11,253.47a.62.62,0,0,1-.67.65.63.63,0,0,1-.64-.65.65.65,0,0,1,.66-.66A.63.63,0,0,1,74.11,253.47Zm-1.18,7.43v-5.8H74v5.8Z"/><path class="cls-4" d="M75.6,259.83a2.79,2.79,0,0,0,1.39.42c.77,0,1.13-.39,1.13-.87s-.3-.78-1.08-1.07c-1.05-.37-1.54-.94-1.54-1.64a1.79,1.79,0,0,1,2-1.7,2.91,2.91,0,0,1,1.43.36l-.26.77a2.22,2.22,0,0,0-1.19-.34c-.62,0-1,.36-1,.79s.35.7,1.1,1c1,.39,1.53.89,1.53,1.76S78.34,261,77,261a3.33,3.33,0,0,1-1.63-.39Z"/><path class="cls-4" d="M83,252.39h1v8.51H83Z"/><path class="cls-4" d="M91.12,258A2.84,2.84,0,0,1,88.23,261a2.76,2.76,0,0,1-2.78-3A2.83,2.83,0,0,1,88.33,255,2.74,2.74,0,0,1,91.12,258Zm-4.6.06c0,1.28.73,2.24,1.76,2.24S90,259.3,90,258c0-1-.49-2.23-1.74-2.23S86.52,256.91,86.52,258Z"/><path class="cls-4" d="M96.6,260.69a4,4,0,0,1-1.67.33,2.75,2.75,0,0,1-2.89-3A3,3,0,0,1,95.16,255a3.6,3.6,0,0,1,1.46.3l-.24.82a2.37,2.37,0,0,0-1.22-.28,2.19,2.19,0,0,0,0,4.37,3,3,0,0,0,1.3-.29Z"/><path class="cls-4" d="M101.05,260.9l-.09-.73h0a2.17,2.17,0,0,1-1.78.87,1.65,1.65,0,0,1-1.77-1.67c0-1.4,1.24-2.17,3.49-2.16v-.12a1.19,1.19,0,0,0-1.32-1.34,2.93,2.93,0,0,0-1.51.43l-.24-.7a3.6,3.6,0,0,1,1.9-.51c1.78,0,2.21,1.21,2.21,2.37v2.17a8.24,8.24,0,0,0,.1,1.39Zm-.16-3c-1.15,0-2.46.18-2.46,1.31a.94.94,0,0,0,1,1,1.45,1.45,0,0,0,1.4-1,1,1,0,0,0,.06-.34Z"/><path class="cls-4" d="M104.84,253.43v1.67h1.51v.8h-1.51V259c0,.72.2,1.13.79,1.13a2.15,2.15,0,0,0,.61-.07l.05.79a2.67,2.67,0,0,1-.93.14,1.44,1.44,0,0,1-1.14-.44,2.15,2.15,0,0,1-.41-1.51V255.9h-.9v-.8h.9v-1.39Z"/><path class="cls-4" d="M108.06,258.19a1.86,1.86,0,0,0,2,2,3.75,3.75,0,0,0,1.6-.3l.18.76a4.84,4.84,0,0,1-1.93.35,2.69,2.69,0,0,1-2.85-2.92c0-1.75,1-3.13,2.72-3.13a2.46,2.46,0,0,1,2.4,2.73,2.63,2.63,0,0,1,0,.49Zm3.09-.75a1.5,1.5,0,0,0-1.46-1.72,1.75,1.75,0,0,0-1.62,1.72Z"/><path class="cls-4" d="M118.49,252.39v7c0,.51,0,1.1.05,1.49h-1l0-1h0a2.16,2.16,0,0,1-2,1.14c-1.4,0-2.48-1.19-2.48-3,0-1.93,1.19-3.12,2.6-3.12a2,2,0,0,1,1.76.89h0v-3.47Zm-1,5.07a1.65,1.65,0,0,0,0-.44,1.55,1.55,0,0,0-1.52-1.22c-1.09,0-1.74.95-1.74,2.24s.57,2.15,1.71,2.15a1.59,1.59,0,0,0,1.55-1.26,1.71,1.71,0,0,0,0-.46Z"/><path class="cls-4" d="M126,260.9l-.09-.73h0a2.17,2.17,0,0,1-1.78.87,1.65,1.65,0,0,1-1.77-1.67c0-1.4,1.24-2.17,3.49-2.16v-.12a1.19,1.19,0,0,0-1.32-1.34,2.9,2.9,0,0,0-1.51.43l-.24-.7a3.6,3.6,0,0,1,1.9-.51c1.78,0,2.21,1.21,2.21,2.37v2.17a7.31,7.31,0,0,0,.1,1.39Zm-.16-3c-1.15,0-2.46.18-2.46,1.31a.94.94,0,0,0,1,1,1.45,1.45,0,0,0,1.4-1,1,1,0,0,0,.06-.34Z"/><path class="cls-4" d="M129.8,253.43v1.67h1.51v.8H129.8V259c0,.72.2,1.13.79,1.13a2.15,2.15,0,0,0,.61-.07l.05.79a2.67,2.67,0,0,1-.93.14,1.44,1.44,0,0,1-1.14-.44,2.15,2.15,0,0,1-.41-1.51V255.9h-.9v-.8h.9v-1.39Z"/><path class="cls-7" d="M135.45,255.1l1.14,3.26c.19.53.35,1,.47,1.49h0c.14-.48.3-1,.5-1.49l1.12-3.26h1.11l-2.28,5.8h-1l-2.21-5.8Z"/><path class="cls-7" d="M142,253.47a.62.62,0,0,1-.67.65.63.63,0,0,1-.64-.65.65.65,0,0,1,.66-.66A.63.63,0,0,1,142,253.47Zm-1.17,7.43v-5.8h1.05v5.8Z"/><path class="cls-7" d="M144.21,258.19a1.87,1.87,0,0,0,2,2,3.8,3.8,0,0,0,1.61-.3l.18.76a4.88,4.88,0,0,1-1.93.35,2.69,2.69,0,0,1-2.86-2.92c0-1.75,1-3.13,2.73-3.13a2.46,2.46,0,0,1,2.4,2.73,4,4,0,0,1,0,.49Zm3.1-.75a1.51,1.51,0,0,0-1.47-1.72,1.77,1.77,0,0,0-1.62,1.72Z"/><path class="cls-7" d="M150.06,255.1l.76,3c.17.65.33,1.25.43,1.85h0c.13-.59.32-1.21.52-1.84l.94-3h.89l.9,2.9c.22.7.38,1.31.52,1.9h0a17,17,0,0,1,.45-1.89l.82-2.91h1l-1.87,5.8h-1l-.89-2.77c-.2-.64-.37-1.22-.52-1.9h0a15.86,15.86,0,0,1-.53,1.92l-.93,2.75h-1L149,255.1Z"/><path class="cls-7" d="M158.25,259.83a2.82,2.82,0,0,0,1.39.42c.77,0,1.13-.39,1.13-.87s-.3-.78-1.08-1.07c-1-.37-1.53-.94-1.53-1.64a1.79,1.79,0,0,1,2-1.7,2.94,2.94,0,0,1,1.43.36l-.27.77a2.21,2.21,0,0,0-1.18-.34c-.63,0-1,.36-1,.79s.35.7,1.11,1c1,.39,1.52.89,1.52,1.76S161,261,159.62,261a3.3,3.3,0,0,1-1.63-.39Z"/><path class="cls-7" d="M162.26,261.38l3.35-8.69h.81l-3.36,8.69Z"/><path class="cls-7" d="M168.44,253.47a.62.62,0,0,1-.67.65.63.63,0,0,1-.64-.65.65.65,0,0,1,.66-.66A.63.63,0,0,1,168.44,253.47Zm-1.18,7.43v-5.8h1.06v5.8Z"/><path class="cls-7" d="M170.07,256.67c0-.6,0-1.09,0-1.57H171l.06,1h0A2.14,2.14,0,0,1,173,255c.81,0,2,.48,2,2.47v3.46h-1v-3.34c0-.94-.35-1.72-1.35-1.72a1.51,1.51,0,0,0-1.41,1.08,1.45,1.45,0,0,0-.07.49v3.49h-1.06Z"/><path class="cls-7" d="M181.75,252.39v7c0,.51,0,1.1,0,1.49h-.94l0-1h0a2.16,2.16,0,0,1-2,1.14c-1.4,0-2.48-1.19-2.48-3,0-1.93,1.19-3.12,2.6-3.12a2,2,0,0,1,1.76.89h0v-3.47Zm-1.06,5.07a1.65,1.65,0,0,0-.05-.44,1.54,1.54,0,0,0-1.52-1.22c-1.09,0-1.74.95-1.74,2.24s.58,2.15,1.71,2.15a1.59,1.59,0,0,0,1.55-1.26,1.71,1.71,0,0,0,.05-.46Z"/><path class="cls-7" d="M184.09,258.19a1.86,1.86,0,0,0,2,2,3.83,3.83,0,0,0,1.61-.3l.18.76a4.94,4.94,0,0,1-1.94.35,2.69,2.69,0,0,1-2.85-2.92c0-1.75,1-3.13,2.72-3.13a2.46,2.46,0,0,1,2.4,2.73,4.49,4.49,0,0,1,0,.49Zm3.09-.75a1.5,1.5,0,0,0-1.46-1.72,1.75,1.75,0,0,0-1.62,1.72Z"/><path class="cls-7" d="M190,255.1l.82,1.25c.22.32.4.62.59.94h0c.19-.34.38-.64.57-1l.82-1.24H194l-2,2.81,2,3h-1.2l-.85-1.3c-.23-.34-.42-.66-.63-1h0c-.19.35-.39.66-.61,1l-.84,1.3H188.7l2.06-3-2-2.84Z"/><path class="cls-7" d="M194.14,261.38l3.35-8.69h.82L195,261.38Z"/><path class="cls-7" d="M200.32,253.47a.65.65,0,1,1-1.3,0,.64.64,0,0,1,.66-.66A.62.62,0,0,1,200.32,253.47Zm-1.17,7.43v-5.8h1v5.8Z"/><path class="cls-7" d="M202,256.67c0-.6,0-1.09-.05-1.57h.93l.06,1h0a2.14,2.14,0,0,1,1.92-1.09c.8,0,2.05.48,2.05,2.47v3.46h-1.06v-3.34c0-.94-.35-1.72-1.34-1.72a1.51,1.51,0,0,0-1.42,1.08,1.75,1.75,0,0,0-.07.49v3.49h-1Z"/><path class="cls-7" d="M213.63,252.39v7c0,.51,0,1.1.05,1.49h-1l0-1h0a2.17,2.17,0,0,1-2,1.14c-1.4,0-2.48-1.19-2.48-3,0-1.93,1.18-3.12,2.6-3.12a1.93,1.93,0,0,1,1.75.89h0v-3.47Zm-1.06,5.07a2.18,2.18,0,0,0,0-.44A1.56,1.56,0,0,0,211,255.8c-1.09,0-1.74.95-1.74,2.24s.58,2.15,1.72,2.15a1.6,1.6,0,0,0,1.55-1.26,2.25,2.25,0,0,0,0-.46Z"/><path class="cls-7" d="M216,258.19a1.87,1.87,0,0,0,2,2,3.8,3.8,0,0,0,1.61-.3l.18.76a4.88,4.88,0,0,1-1.93.35A2.69,2.69,0,0,1,215,258.1c0-1.75,1-3.13,2.73-3.13a2.46,2.46,0,0,1,2.4,2.73,4,4,0,0,1,0,.49Zm3.1-.75a1.51,1.51,0,0,0-1.47-1.72,1.77,1.77,0,0,0-1.62,1.72Z"/><path class="cls-7" d="M221.85,255.1l.83,1.25c.21.32.39.62.59.94h0c.19-.34.39-.64.58-1l.81-1.24h1.14l-2,2.81,2,3h-1.2l-.85-1.3c-.23-.34-.42-.66-.62-1h0c-.19.35-.39.66-.61,1l-.84,1.3h-1.16l2.06-3-2-2.84Z"/><path class="cls-7" d="M226.66,260.28a.71.71,0,0,1,.72-.75.76.76,0,0,1,0,1.51A.71.71,0,0,1,226.66,260.28Z"/><path class="cls-7" d="M229.81,255.1l1.14,3.26c.19.53.34,1,.47,1.49h0c.13-.48.3-1,.49-1.49l1.13-3.26h1.1l-2.28,5.8h-1l-2.21-5.8Z"/><path class="cls-7" d="M240.3,258a2.84,2.84,0,0,1-2.89,3.09,2.76,2.76,0,0,1-2.78-3,2.83,2.83,0,0,1,2.88-3.08A2.74,2.74,0,0,1,240.3,258Zm-4.6.06c0,1.28.73,2.24,1.76,2.24s1.77-.95,1.77-2.26c0-1-.5-2.23-1.74-2.23S235.7,256.91,235.7,258Z"/><path class="cls-7" d="M241.64,252.39h1.06v8.51h-1.06Z"/><path class="cls-7" d="M245.74,253.43v1.67h1.51v.8h-1.51V259c0,.72.21,1.13.79,1.13a2.29,2.29,0,0,0,.62-.07l0,.79a2.63,2.63,0,0,1-.93.14,1.45,1.45,0,0,1-1.14-.44,2.15,2.15,0,0,1-.41-1.51V255.9h-.9v-.8h.9v-1.39Z"/><path class="cls-4" d="M44.23,413.29l-2.64-8.09h1.12l1.26,4c.35,1.09.65,2.07.87,3h0c.23-.94.56-2,.92-3l1.37-4h1.12l-2.89,8.09Z"/><path class="cls-4" d="M53.75,411.71c0,.6,0,1.12,0,1.58h-.94l-.06-1h0a2.19,2.19,0,0,1-1.92,1.08c-.91,0-2-.5-2-2.54v-3.4h1v3.22c0,1.1.34,1.85,1.3,1.85a1.53,1.53,0,0,0,1.39-1,1.57,1.57,0,0,0,.1-.54v-3.57h1Z"/><path class="cls-4" d="M56.09,410.58a1.86,1.86,0,0,0,2,2,3.76,3.76,0,0,0,1.61-.3l.18.76a4.67,4.67,0,0,1-1.93.36,2.69,2.69,0,0,1-2.85-2.93c0-1.75,1-3.13,2.72-3.13a2.47,2.47,0,0,1,2.4,2.74,4.35,4.35,0,0,1,0,.49Zm3.1-.76a1.5,1.5,0,0,0-1.47-1.71,1.74,1.74,0,0,0-1.61,1.71Z"/><path class="cls-4" d="M64.06,409.29c0-.68,0-1.27,0-1.81h.93l0,1.14h0a1.74,1.74,0,0,1,1.61-1.27,1,1,0,0,1,.3,0v1a1.94,1.94,0,0,0-.36,0,1.48,1.48,0,0,0-1.42,1.35,3.52,3.52,0,0,0-.05.49v3.1h-1Z"/><path class="cls-4" d="M68.45,410.58a1.86,1.86,0,0,0,2,2,3.76,3.76,0,0,0,1.61-.3l.18.76a4.67,4.67,0,0,1-1.93.36,2.69,2.69,0,0,1-2.85-2.93c0-1.75,1-3.13,2.72-3.13a2.47,2.47,0,0,1,2.4,2.74,4.35,4.35,0,0,1,0,.49Zm3.1-.76a1.5,1.5,0,0,0-1.47-1.71,1.76,1.76,0,0,0-1.62,1.71Z"/><path class="cls-4" d="M73.88,409.06c0-.6,0-1.1,0-1.58h.93l.06,1h0a2.14,2.14,0,0,1,1.92-1.09c.8,0,2,.48,2,2.47v3.47H77.76v-3.35c0-.93-.34-1.71-1.34-1.71A1.5,1.5,0,0,0,75,409.31a1.75,1.75,0,0,0-.07.49v3.49H73.88Z"/><path class="cls-4" d="M85.55,404.77v7c0,.52,0,1.1,0,1.5h-.95l-.05-1h0a2.15,2.15,0,0,1-2,1.14c-1.4,0-2.48-1.19-2.48-2.95,0-1.93,1.18-3.12,2.6-3.12a1.93,1.93,0,0,1,1.75.89h0v-3.47Zm-1,5.08a2.22,2.22,0,0,0,0-.45,1.56,1.56,0,0,0-1.53-1.22c-1.09,0-1.74,1-1.74,2.24s.58,2.15,1.72,2.15a1.6,1.6,0,0,0,1.55-1.26,2.16,2.16,0,0,0,0-.46Z"/><path class="cls-4" d="M87.89,410.58a1.86,1.86,0,0,0,2,2,3.76,3.76,0,0,0,1.61-.3l.18.76a4.67,4.67,0,0,1-1.93.36,2.69,2.69,0,0,1-2.85-2.93c0-1.75,1-3.13,2.72-3.13a2.47,2.47,0,0,1,2.4,2.74,4.35,4.35,0,0,1,0,.49Zm3.1-.76a1.5,1.5,0,0,0-1.47-1.71,1.76,1.76,0,0,0-1.62,1.71Z"/><path class="cls-4" d="M93.32,409.29c0-.68,0-1.27,0-1.81h.92l0,1.14h0a1.74,1.74,0,0,1,1.6-1.27.91.91,0,0,1,.3,0v1a1.79,1.79,0,0,0-.36,0,1.47,1.47,0,0,0-1.41,1.35,2.46,2.46,0,0,0,0,.49v3.1h-1Z"/><path class="cls-4" d="M98.46,405.85a.62.62,0,0,1-.67.65.63.63,0,0,1-.63-.65.64.64,0,0,1,.66-.66A.62.62,0,0,1,98.46,405.85Zm-1.17,7.44v-5.81h1v5.81Z"/><path class="cls-4" d="M100.1,409.06c0-.6,0-1.1,0-1.58H101l.06,1h0a2.14,2.14,0,0,1,1.92-1.09c.8,0,2.05.48,2.05,2.47v3.47H104v-3.35c0-.93-.35-1.71-1.34-1.71a1.5,1.5,0,0,0-1.42,1.08,1.75,1.75,0,0,0-.07.49v3.49H100.1Z"/><path class="cls-4" d="M111.76,407.48c0,.42-.05.89-.05,1.6v3.37a3.31,3.31,0,0,1-.83,2.65,3.06,3.06,0,0,1-2.11.7,3.78,3.78,0,0,1-1.93-.48l.26-.81a3.31,3.31,0,0,0,1.71.46c1.08,0,1.87-.57,1.87-2v-.65h0a2.05,2.05,0,0,1-1.84,1,2.59,2.59,0,0,1-2.47-2.83,2.79,2.79,0,0,1,2.61-3.08,1.92,1.92,0,0,1,1.81,1h0l0-.88Zm-1.09,2.29a1.8,1.8,0,0,0-.06-.48,1.52,1.52,0,0,0-1.48-1.11c-1,0-1.73.85-1.73,2.19,0,1.14.58,2.09,1.72,2.09a1.54,1.54,0,0,0,1.46-1.08,1.82,1.82,0,0,0,.09-.56Z"/><path class="cls-4" d="M116.12,413.29v-5h-.82v-.81h.82v-.27a2.75,2.75,0,0,1,.67-2,2,2,0,0,1,1.41-.54,2.47,2.47,0,0,1,.9.17l-.14.81a1.62,1.62,0,0,0-.67-.13c-.9,0-1.13.79-1.13,1.68v.31h1.4v.81h-1.4v5Z"/><path class="cls-4" d="M119.51,409.29c0-.68,0-1.27-.05-1.81h.93l0,1.14h0a1.75,1.75,0,0,1,1.61-1.27,1,1,0,0,1,.3,0v1a1.94,1.94,0,0,0-.36,0,1.49,1.49,0,0,0-1.42,1.35,3.6,3.6,0,0,0,0,.49v3.1h-1Z"/><path class="cls-4" d="M128.57,410.34a2.84,2.84,0,0,1-2.89,3.08,2.76,2.76,0,0,1-2.78-3,2.83,2.83,0,0,1,2.88-3.08A2.75,2.75,0,0,1,128.57,410.34Zm-4.61.06c0,1.27.74,2.23,1.77,2.23s1.76-.95,1.76-2.26c0-1-.49-2.23-1.74-2.23S124,409.29,124,410.4Z"/><path class="cls-4" d="M129.9,409.06c0-.6,0-1.1,0-1.58h.93l.06,1h0a2.13,2.13,0,0,1,1.92-1.09c.8,0,2,.48,2,2.47v3.47h-1.06v-3.35c0-.93-.35-1.71-1.34-1.71a1.5,1.5,0,0,0-1.42,1.08,1.45,1.45,0,0,0-.07.49v3.49H129.9Z"/><path class="cls-4" d="M137.79,405.82v1.66h1.51v.81h-1.51v3.13c0,.72.2,1.13.79,1.13a2.08,2.08,0,0,0,.61-.08l.05.79a2.44,2.44,0,0,1-.94.15,1.47,1.47,0,0,1-1.14-.45,2.13,2.13,0,0,1-.4-1.51v-3.16h-.9v-.81h.9v-1.39Z"/><path class="cls-4" d="M141,410.58a1.86,1.86,0,0,0,2,2,3.75,3.75,0,0,0,1.6-.3l.18.76a4.67,4.67,0,0,1-1.93.36,2.69,2.69,0,0,1-2.85-2.93c0-1.75,1-3.13,2.72-3.13a2.47,2.47,0,0,1,2.4,2.74,4.35,4.35,0,0,1,0,.49Zm3.1-.76a1.5,1.5,0,0,0-1.46-1.71,1.74,1.74,0,0,0-1.62,1.71Z"/><path class="cls-4" d="M146.43,409.06c0-.6,0-1.1-.05-1.58h.94l.06,1h0a2.14,2.14,0,0,1,1.92-1.09c.8,0,2.05.48,2.05,2.47v3.47h-1.06v-3.35c0-.93-.34-1.71-1.34-1.71a1.5,1.5,0,0,0-1.41,1.08,1.44,1.44,0,0,0-.08.49v3.49h-1Z"/><path class="cls-4" d="M158.1,404.77v7c0,.52,0,1.1.05,1.5h-1l0-1h0a2.14,2.14,0,0,1-2,1.14c-1.4,0-2.48-1.19-2.48-2.95,0-1.93,1.19-3.12,2.6-3.12a1.93,1.93,0,0,1,1.75.89h0v-3.47Zm-1,5.08a2.22,2.22,0,0,0-.05-.45,1.55,1.55,0,0,0-1.52-1.22c-1.1,0-1.74,1-1.74,2.24s.57,2.15,1.71,2.15a1.59,1.59,0,0,0,1.55-1.26,2.16,2.16,0,0,0,.05-.46Z"/></g></g></svg>