<svg xmlns="http://www.w3.org/2000/svg" viewBox="0 0 588.92 612"><defs><style>.cls-1,.cls-4{fill:#fff;}.cls-10,.cls-2{fill:#f1f2f2;}.cls-10,.cls-11,.cls-2,.cls-3,.cls-35{stroke:#231f20;}.cls-10,.cls-11,.cls-2,.cls-3,.cls-34,.cls-35,.cls-40{stroke-miterlimit:10;}.cls-14,.cls-3{fill:#27aae1;}.cls-4,.cls-7{font-size:19px;}.cls-15,.cls-4,.cls-7{font-family:MyriadPro-Regular, Myriad Pro;}.cls-5{letter-spacing:-0.01em;}.cls-6{letter-spacing:-0.02em;}.cls-15,.cls-36,.cls-7{fill:#231f20;}.cls-8{letter-spacing:-0.01em;}.cls-9{letter-spacing:-0.02em;}.cls-10,.cls-11,.cls-34,.cls-40{stroke-width:2px;}.cls-11,.cls-34,.cls-35,.cls-40{fill:none;}.cls-12,.cls-42,.cls-43,.cls-44,.cls-45,.cls-46{fill:#ec008c;}.cls-13{fill:#8dc63f;}.cls-15{font-size:12px;}.cls-16{letter-spacing:0.03em;}.cls-17{letter-spacing:-0.01em;}.cls-18,.cls-46{letter-spacing:-0.01em;}.cls-19,.cls-42{letter-spacing:-0.01em;}.cls-20{letter-spacing:0.02em;}.cls-21{letter-spacing:0.01em;}.cls-22{letter-spacing:-0.01em;}.cls-23{letter-spacing:0em;}.cls-24{letter-spacing:0em;}.cls-25,.cls-43{letter-spacing:0em;}.cls-26{letter-spacing:-0.01em;}.cls-27{letter-spacing:-0.01em;}.cls-28{letter-spacing:-0.01em;}.cls-29{letter-spacing:2.79em;}.cls-30{letter-spacing:0em;}.cls-31{letter-spacing:-0.01em;}.cls-32{letter-spacing:-0.01em;}.cls-33{letter-spacing:0.88em;}.cls-34{stroke:#ec008c;}.cls-37{letter-spacing:-0.01em;}.cls-38{letter-spacing:-0.02em;}.cls-39{letter-spacing:-0.01em;}.cls-40{stroke:#414042;}.cls-41{fill:#414042;}.cls-44{letter-spacing:0em;}.cls-45{letter-spacing:0em;}.cls-47{letter-spacing:-0.02em;}.cls-48{letter-spacing:0em;}.cls-49{letter-spacing:0em;}</style></defs><g id="Layer_2" data-name="Layer 2"><g id="Layer_1-2" data-name="Layer 1"><rect class="cls-1" width="588.92" height="612"/><rect class="cls-2" x="9.75" y="418.92" width="569.17" height="164.92" rx="39.58"/><rect class="cls-3" x="191.42" y="445.67" width="181.67" height="114.17" rx="32.92"/><text class="cls-4" transform="translate(224.25 510.42)">Dashboa<tspan class="cls-5" x="70.28" y="0">rd</tspan><tspan x="86.83" y="0">.</tspan><tspan class="cls-6" x="90.76" y="0">V</tspan><tspan x="101.02" y="0">ue</tspan></text><text class="cls-7" transform="translate(67.81 453.34)">lot<tspan class="cls-8" x="21.2" y="0">t</tspan><tspan class="cls-9" x="27.38" y="0">o</tspan><tspan x="37.35" y="0">.js</tspan></text><rect class="cls-10" x="9.75" y="5.15" width="561.93" height="241.15" rx="29.3"/><line class="cls-11" x1="9.75" y1="34.45" x2="571.68" y2="34.45"/><circle class="cls-12" cx="494.51" cy="20.31" r="7.08"/><circle class="cls-13" cx="518.67" cy="20.31" r="7.08"/><circle class="cls-14" cx="542.82" cy="20.31" r="7.08"/><text class="cls-15" transform="translate(66.46 48.9)">&lt;div class=&quot;pag<tspan class="cls-16" x="79.06" y="0">e</tspan><tspan x="85.4" y="0" xml:space="preserve">-header&quot;&gt;                                                        </tspan><tspan x="0" y="14.4" xml:space="preserve">    &lt;h1&gt;</tspan><tspan class="cls-17" x="37.29" y="14.4">C</tspan><tspan x="44.17" y="14.4" xml:space="preserve">ar List&lt;/h1&gt;                                                            </tspan><tspan x="0" y="28.8" xml:space="preserve">&lt;/div&gt;                                                                           </tspan><tspan x="0" y="43.2" xml:space="preserve">                                                                                 </tspan><tspan x="0" y="57.6">&lt;p&gt;A di</tspan><tspan class="cls-18" x="40.6" y="57.6">r</tspan><tspan x="44.4" y="57.6">e</tspan><tspan class="cls-19" x="50.41" y="57.6">t</tspan><tspan x="54.31" y="57.6">o</tspan><tspan class="cls-20" x="60.9" y="57.6">r</tspan><tspan x="65.12" y="57.6">y of cars manufa</tspan><tspan class="cls-21" x="146.69" y="57.6">c</tspan><tspan x="152.22" y="57.6">tu</tspan><tspan class="cls-22" x="162.8" y="57.6">r</tspan><tspan x="166.6" y="57.6">e</tspan><tspan class="cls-18" x="172.62" y="57.6">r</tspan><tspan x="176.42" y="57.6">e&apos;s and their car list&lt;/p&gt; </tspan><tspan x="0" y="86.4">&lt;p&gt;</tspan><tspan class="cls-17" x="21.13" y="86.4">T</tspan><tspan x="27.01" y="86.4">his page is loc</tspan><tspan class="cls-23" x="96.55" y="86.4">a</tspan><tspan class="cls-19" x="102.29" y="86.4">t</tspan><tspan x="106.19" y="86.4">ed </tspan><tspan class="cls-24" x="121.51" y="86.4">a</tspan><tspan x="127.25" y="86.4">t &lt;</tspan><tspan class="cls-19" x="140.91" y="86.4">c</tspan><tspan x="146.22" y="86.4">ode&gt;vie</tspan><tspan class="cls-19" x="187.33" y="86.4">w</tspan><tspan x="196.09" y="86.4">s/ind</tspan><tspan class="cls-25" x="221.19" y="86.4">e</tspan><tspan x="227.17" y="86.4">x/ind</tspan><tspan class="cls-25" x="253.08" y="86.4">e</tspan><tspan x="259.05" y="86.4">x.</tspan><tspan class="cls-26" x="267.09" y="86.4">v</tspan><tspan x="272.74" y="86.4">olt&lt;/</tspan><tspan class="cls-27" x="297.4" y="86.4">c</tspan><tspan x="302.71" y="86.4">ode&gt;&lt;/p&gt;</tspan><tspan x="0" y="115.2">&lt;div class=</tspan><tspan class="cls-28" x="55.69" y="115.2">&quot;</tspan><tspan x="59.64" y="115.2">cars&quot;&gt;</tspan><tspan class="cls-29" x="0" y="129.6">	</tspan><tspan x="36" y="129.6">&lt;dashboa</tspan><tspan class="cls-18" x="86.32" y="129.6">r</tspan><tspan x="90.12" y="129.6">d&gt;&lt;/dashboa</tspan><tspan class="cls-22" x="158.47" y="129.6">r</tspan><tspan x="162.27" y="129.6">d&gt;</tspan><tspan x="0" y="144">&lt;/div&gt;</tspan><tspan x="0" y="187.2">&lt;sc</tspan><tspan class="cls-30" x="17.28" y="187.2">r</tspan><tspan x="21.25" y="187.2">ipt s</tspan><tspan class="cls-22" x="42.16" y="187.2">r</tspan><tspan x="45.96" y="187.2">c=&quot;/builds/p</tspan><tspan class="cls-18" x="108.19" y="187.2">r</tspan><tspan x="111.99" y="187.2">odu</tspan><tspan class="cls-21" x="131.96" y="187.2">c</tspan><tspan x="137.49" y="187.2">tion/js/dist/car</tspan><tspan class="cls-31" x="210.92" y="187.2">s</tspan><tspan x="215.54" y="187.2">.bundl</tspan><tspan class="cls-32" x="247.72" y="187.2">e</tspan><tspan x="253.59" y="187.2">.js&quot;&gt;</tspan><tspan class="cls-33" x="274.94" y="187.2">	</tspan></text><rect class="cls-1" x="52.94" y="13.22" width="417.83" height="14.17"/><rect class="cls-34" x="61.54" y="222.31" width="305.23" height="19.69"/><line class="cls-35" x1="284.75" y1="418.92" x2="284.75" y2="387.02"/><path class="cls-36" d="M284.75,381a30.15,30.15,0,0,0,4.76,8.54l-4.76-1.72L280,389.53A30.12,30.12,0,0,0,284.75,381Z"/><rect class="cls-35" x="196.1" y="339.31" width="175.3" height="42.46"/><text class="cls-15" transform="translate(224.03 363.49)"><tspan class="cls-27">c</tspan><tspan x="5.3" y="0">ompiled </tspan><tspan class="cls-37" x="49.69" y="0">t</tspan><tspan x="53.59" y="0">o lot</tspan><tspan class="cls-27" x="76.11" y="0">t</tspan><tspan class="cls-38" x="80.01" y="0">o</tspan><tspan x="86.31" y="0">.bundl</tspan><tspan class="cls-32" x="118.5" y="0">e</tspan><tspan x="124.37" y="0">.js</tspan></text><rect class="cls-34" x="60" y="150.31" width="190.15" height="53.54"/><line class="cls-34" x1="344" y1="177.08" x2="267.45" y2="177.08"/><path class="cls-12" d="M255.38,177.08c5.68-2.11,12.73-5.71,17.1-9.51L269,177.08l3.44,9.51C268.11,182.78,261.06,179.18,255.38,177.08Z"/><text class="cls-15" transform="translate(352.97 172.88)"><tspan class="cls-18">r</tspan><tspan x="3.8" y="0">ende</tspan><tspan class="cls-18" x="29.25" y="0">r</tspan><tspan x="33.06" y="0">ed </tspan><tspan class="cls-39" x="48.38" y="0">b</tspan><tspan x="55.13" y="0">y lot</tspan><tspan class="cls-27" x="76.71" y="0">t</tspan><tspan class="cls-38" x="80.61" y="0">o</tspan><tspan x="86.91" y="0">.js which is </tspan><tspan x="0" y="14.4">s</tspan><tspan class="cls-27" x="4.75" y="14.4">t</tspan><tspan x="8.65" y="14.4">o</tspan><tspan class="cls-18" x="15.24" y="14.4">r</tspan><tspan x="19.04" y="14.4">ed in lot</tspan><tspan class="cls-37" x="59.77" y="14.4">t</tspan><tspan class="cls-38" x="63.67" y="14.4">o</tspan><tspan x="69.97" y="14.4">.bundl</tspan><tspan class="cls-32" x="102.15" y="14.4">e</tspan><tspan x="108.02" y="14.4">.js</tspan></text><line class="cls-40" x1="284.75" y1="339.31" x2="284.75" y2="254.07"/><path class="cls-41" d="M284.75,242c2.11,5.68,5.71,12.73,9.51,17.09l-9.51-3.44-9.51,3.44C279.05,254.73,282.65,247.68,284.75,242Z"/><text class="cls-15" transform="translate(21.54 260.9)"><tspan class="cls-17">T</tspan><tspan x="5.88" y="0">his page is loc</tspan><tspan class="cls-23" x="75.42" y="0">a</tspan><tspan class="cls-19" x="81.16" y="0">t</tspan><tspan x="85.06" y="0">ed </tspan><tspan class="cls-24" x="100.38" y="0">a</tspan><tspan x="106.11" y="0">t </tspan><tspan class="cls-12" x="112.63" y="0">vie</tspan><tspan class="cls-42" x="127.22" y="0">w</tspan><tspan class="cls-12" x="135.98" y="0">s/ind</tspan><tspan class="cls-43" x="161.09" y="0">e</tspan><tspan class="cls-44" x="167.06" y="0">x/ind</tspan><tspan class="cls-45" x="192.97" y="0">e</tspan><tspan class="cls-12" x="198.95" y="0">x.</tspan><tspan class="cls-46" x="206.99" y="0">v</tspan><tspan class="cls-12" x="212.64" y="0">olt </tspan></text><text class="cls-15" transform="translate(41.54 413.29)"><tspan class="cls-47">V</tspan><tspan x="6.48" y="0">ue </tspan><tspan class="cls-18" x="21.65" y="0">r</tspan><tspan x="25.45" y="0">ende</tspan><tspan class="cls-48" x="50.9" y="0">r</tspan><tspan class="cls-49" x="54.88" y="0">ing f</tspan><tspan class="cls-22" x="77.1" y="0">r</tspan><tspan x="80.9" y="0">o</tspan><tspan class="cls-23" x="87.49" y="0">n</tspan><tspan class="cls-27" x="94.1" y="0">t</tspan><tspan x="98" y="0">end</tspan></text></g></g></svg>